# Blender 4.3.0
# www.blender.org
mtllib blood.mtl
o Cube
v -0.085543 1.614324 0.593811
v -0.084345 2.043278 0.581975
v -0.077755 1.628509 -0.584002
v -0.036990 2.042492 -0.574756
v 0.108257 1.630173 0.583148
v 0.120018 2.044232 0.566315
v 0.138265 1.629357 -0.582327
v 0.153998 2.031317 -0.586321
v -0.100271 1.598533 0.009813
v -0.115354 1.826574 0.609155
v -0.013140 2.046985 -0.000017
v -0.082551 1.830756 -0.607888
v 0.038308 1.613193 -0.614588
v 0.071048 2.062897 -0.604276
v 0.159877 1.829693 -0.614601
v 0.118765 1.623129 0.000598
v 0.161209 2.048197 -0.001063
v 0.117389 1.831031 0.611190
v 0.014342 1.608258 0.615003
v 0.000285 2.066637 0.635581
v 0.084288 2.100097 -0.008751
v 0.012095 1.568914 0.007830
v 0.008413 1.831605 0.702608
v 0.155194 1.829775 0.003879
v 0.044732 1.830366 -0.703419
v -0.120890 1.818253 -0.000885
v -0.109367 1.956572 0.606837
v -0.025898 2.047746 -0.360714
v -0.081363 1.707752 -0.615831
v -0.030306 1.615557 -0.614515
v 0.137845 2.051604 -0.606582
v 0.156717 1.706856 -0.614457
v 0.132083 1.619152 -0.354702
v 0.142053 2.055237 0.348216
v 0.123806 1.708020 0.613594
v 0.072030 1.617392 0.612719
v -0.056731 2.059555 0.616771
v -0.095953 1.610641 -0.356607
v -0.111029 1.700342 0.610563
v -0.073443 2.038784 0.340946
v -0.062365 1.950193 -0.612842
v 0.099393 1.619095 -0.613888
v 0.008860 2.057643 -0.612398
v 0.172141 1.954365 -0.604778
v 0.109398 1.616664 0.354263
v 0.191592 2.049783 -0.349029
v 0.125146 1.962435 0.615225
v -0.047856 1.606141 0.620575
v 0.066650 2.061964 0.617070
v 0.035999 2.104092 0.377161
v 0.092635 2.099777 -0.348061
v 0.130959 2.093225 -0.005415
v 0.034163 2.097760 -0.008438
v 0.018719 1.572949 0.364298
v 0.017793 1.585488 -0.355205
v -0.052603 1.565493 0.013875
v 0.061675 1.585014 0.001592
v -0.056271 1.830766 0.694434
v 0.073741 1.832848 0.697993
v 0.010399 1.709246 0.695121
v 0.005195 1.958964 0.690769
v 0.152785 1.829032 0.339957
v 0.177136 1.821635 -0.375800
v 0.142124 1.700789 -0.020696
v 0.188267 1.947502 -0.014856
v 0.110765 1.831240 -0.705281
v -0.019324 1.830945 -0.711215
v 0.041471 1.709504 -0.706824
v 0.050243 1.951355 -0.703571
v -0.094279 1.823606 -0.352818
v -0.124935 1.818536 0.354889
v -0.132288 1.693017 0.000933
v -0.085584 1.939230 -0.009001
v -0.092699 1.952619 0.356285
v -0.130852 1.685143 0.358956
v -0.121979 1.703638 -0.355452
v -0.016317 1.953297 -0.698871
v -0.024019 1.711292 -0.706984
v 0.108832 1.708251 -0.709319
v 0.176602 1.952696 -0.353448
v 0.168584 1.707115 -0.354775
v 0.139629 1.705231 0.354161
v 0.071929 1.962003 0.698336
v 0.077144 1.708957 0.702722
v -0.055056 1.706991 0.701440
v 0.084957 1.586511 -0.354884
v -0.045192 1.577673 -0.356486
v -0.060427 1.559495 0.371716
v 0.033944 2.089250 -0.353163
v 0.150564 2.095956 -0.347442
v 0.102180 2.100058 0.358263
v -0.021068 2.085832 0.356383
v 0.053803 1.580944 0.358518
v -0.059815 1.954638 0.704867
v 0.137674 1.953594 0.348759
v 0.109150 1.951320 -0.705406
v -0.070157 1.954266 -0.352758
v -0.090852 2.011827 0.613396
v -0.035911 2.055671 -0.526720
v -0.085423 1.646485 -0.615600
v 0.150347 1.646254 -0.614146
v 0.145393 1.618154 -0.531356
v 0.123270 2.057892 0.522131
v 0.122308 1.647225 0.612146
v -0.106110 1.607702 -0.179133
v -0.111477 1.763743 0.609151
v -0.032241 2.039825 0.166163
v -0.070810 1.890229 -0.610122
v 0.068711 1.615886 -0.614150
v 0.038154 2.058651 -0.611294
v 0.165888 1.890566 -0.612016
v 0.105802 1.619951 0.178527
v 0.187109 2.047144 -0.173618
v 0.120758 1.895787 0.614527
v -0.017508 1.607191 0.618063
v 0.024721 2.069510 0.624357
v -0.000121 2.094263 0.488787
v 0.112235 2.107425 -0.173020
v 0.059034 2.098421 -0.008087
v 0.011982 1.581620 -0.177281
v 0.040923 1.581893 0.005766
v 0.041284 1.832279 0.696611
v 0.005814 1.893194 0.698042
v 0.139070 1.832686 0.533290
v 0.170763 1.823216 -0.194973
v 0.161186 1.886908 -0.015667
v 0.016795 1.831714 -0.700820
v 0.049369 1.893399 -0.706817
v -0.101619 1.828407 -0.531451
v -0.125294 1.815810 0.176279
v -0.128141 1.628935 0.005357
v -0.103627 1.879495 -0.000558
v -0.110650 1.888606 0.611537
v -0.005957 2.042803 -0.187359
v -0.073138 1.768523 -0.611521
v 0.003965 1.614511 -0.614274
v 0.098878 2.059123 -0.602154
v 0.158715 1.768501 -0.615422
v 0.121253 1.622017 -0.177335
v 0.157192 2.050310 0.173800
v 0.121699 1.769585 0.612826
v 0.044903 1.612127 0.614553
v -0.024071 2.063498 0.629888
v -0.085128 1.615318 -0.533947
v -0.104072 1.637259 0.617630
v -0.084773 2.057745 0.530594
v -0.057494 2.016522 -0.610200
v 0.168794 2.005104 -0.615971
v 0.115691 1.617638 0.534998
v 0.123559 2.025305 0.606322
v 0.055597 2.090267 0.161039
v 0.003364 1.571193 0.194814
v -0.021637 1.565432 0.010487
v -0.024681 1.831312 0.691664
v 0.011175 1.770164 0.689967
v 0.148434 1.825998 0.162150
v 0.181493 1.828364 -0.533252
v 0.156532 1.762102 -0.017479
v 0.182195 2.014887 0.001737
v 0.084372 1.831680 -0.708107
v 0.045599 1.770394 -0.704532
v -0.110879 1.820357 -0.177113
v -0.133020 1.823091 0.531427
v -0.136423 1.757318 -0.000095
v -0.048379 2.008282 -0.007136
v -0.083151 1.943196 0.172536
v -0.118677 1.953340 0.532115
v -0.118945 1.881437 0.353656
v -0.081235 2.012041 0.350953
v -0.136060 1.684398 0.186937
v -0.127598 1.691666 0.542579
v -0.117706 1.640763 0.361838
v -0.137629 1.754231 0.358742
v -0.107416 1.706358 -0.532658
v -0.129092 1.698915 -0.178178
v -0.117135 1.641787 -0.356460
v -0.117734 1.764416 -0.353846
v 0.015532 1.951644 -0.702645
v -0.013517 1.892414 -0.705744
v 0.008496 1.710649 -0.706215
v -0.017504 1.768819 -0.701657
v 0.073556 1.708533 -0.706923
v 0.109400 1.769145 -0.707202
v 0.183493 1.946625 -0.187661
v 0.188501 1.950738 -0.532990
v 0.179654 1.886055 -0.365091
v 0.191569 2.011136 -0.353210
v 0.156843 1.704223 -0.188441
v 0.169233 1.707026 -0.532004
v 0.156725 1.646673 -0.354886
v 0.172453 1.764979 -0.365331
v 0.137437 1.706271 0.531542
v 0.139962 1.702285 0.166466
v 0.131554 1.648682 0.354832
v 0.141083 1.764311 0.343990
v 0.038630 1.960631 0.694960
v 0.071603 1.894239 0.702061
v 0.043387 1.708956 0.698926
v 0.076380 1.771025 0.699935
v -0.021944 1.708173 0.693792
v -0.053749 1.769168 0.693530
v 0.069336 1.589236 -0.177227
v 0.053008 1.585949 -0.354833
v -0.054700 1.574257 -0.178693
v -0.008185 1.577772 -0.356098
v -0.060021 1.558174 0.195639
v -0.058287 1.563651 0.365468
v -0.018453 1.561812 0.367881
v 0.055286 2.095346 -0.183594
v 0.160681 2.098514 -0.169469
v 0.053912 2.094115 0.497017
v 0.112633 2.089645 0.164339
v 0.047178 2.105629 0.364883
v 0.011916 2.082225 0.162005
v 0.006022 2.096494 0.367335
v 0.060929 1.587013 0.185369
v 0.023695 1.576714 0.364017
v -0.028693 1.956367 0.698256
v -0.059230 1.891796 0.700633
v 0.142108 1.960584 0.532367
v 0.159979 1.953679 0.169396
v 0.145205 1.892027 0.347432
v 0.081311 1.952549 -0.704221
v 0.112581 1.891284 -0.707480
v -0.080827 1.954282 -0.528492
v -0.066476 1.943787 -0.181437
v -0.093553 1.884515 -0.352974
v -0.051623 2.011286 -0.356880
v -0.037347 2.006422 -0.185215
v -0.094604 1.880252 -0.176909
v -0.095634 1.888793 -0.529534
v 0.080982 1.891492 -0.708694
v 0.171779 2.018994 0.180077
v 0.148353 1.889377 0.162659
v 0.139861 1.896809 0.535849
v -0.026720 1.892639 0.696254
v 0.034683 1.579927 0.187539
v 0.032056 2.086410 0.160839
v -0.028458 1.562103 0.202218
v 0.040915 1.587828 -0.177128
v -0.021896 1.769876 0.685978
v 0.038791 1.893835 0.698083
v 0.146427 1.760429 0.155857
v 0.131490 1.647216 0.178788
v 0.134902 1.646972 0.530697
v 0.176838 1.767956 -0.532672
v 0.162240 1.646093 -0.531848
v 0.185541 1.888820 -0.534230
v 0.173387 1.883207 -0.197053
v 0.077108 1.769505 -0.705756
v 0.018242 1.892914 -0.703410
v -0.129837 1.760752 -0.176963
v -0.127827 1.637498 -0.178966
v -0.105626 1.645060 -0.533638
v -0.135554 1.758443 0.531821
v -0.120126 1.619591 0.187817
v -0.109602 2.025748 0.527771
v -0.131228 1.886197 0.531108
v -0.109666 1.877898 0.175951
v -0.056248 2.007230 0.169656
v -0.142716 1.752584 0.178054
v -0.110339 1.768220 -0.533003
v 0.013185 1.770680 -0.698352
v 0.192529 2.010418 -0.176669
v 0.168145 1.761950 -0.197224
v 0.136731 1.768058 0.531058
v 0.043784 1.770622 0.693316
v -0.018097 1.575222 -0.178204
v 0.058824 2.097797 0.487800
v -0.065341 2.019058 -0.527280
v -0.124803 1.586339 0.373266
v -0.133528 1.599557 0.372380
v -0.104403 1.600562 0.531579
v -0.094555 1.582684 0.535202
v -0.094908 1.596889 0.556891
v -0.069489 1.620100 -0.606653
v -0.052908 1.616391 -0.615012
v 0.152471 2.044385 -0.599763
v 0.138183 2.051581 -0.606574
v 0.089925 1.618095 0.613468
v 0.104792 1.621907 0.605254
v -0.075041 2.051325 0.608773
v -0.057993 2.059107 0.616919
v 0.163336 2.078154 -0.001839
v 0.151132 2.089306 -0.003366
v 0.012437 1.574736 0.558859
v 0.012591 1.568859 0.534370
v -0.089975 1.570712 0.010640
v -0.073578 1.563656 0.012048
v -0.093548 1.829404 0.688304
v -0.076461 1.830256 0.699552
v 0.010886 1.642183 0.689931
v 0.010369 1.656733 0.700314
v 0.133004 1.638599 -0.000543
v 0.140628 1.655993 -0.004539
v 0.139654 1.646589 0.012291
v 0.146929 1.829824 -0.696457
v 0.131317 1.830393 -0.709194
v 0.036419 1.644837 -0.696018
v 0.036983 1.658853 -0.707630
v -0.107877 1.576997 0.193963
v -0.117956 1.592830 0.190385
v -0.115956 1.584551 0.177999
v 0.117808 1.618767 -0.613870
v 0.133328 1.621727 -0.604543
v -0.016606 2.055592 -0.610357
v -0.031977 2.051302 -0.600077
v 0.192016 2.049700 -0.502890
v 0.185475 2.046516 -0.528549
v 0.187715 2.058617 -0.517206
v -0.066689 1.606889 0.620721
v -0.082027 1.609784 0.611589
v 0.090154 2.059207 0.605232
v 0.107017 2.054425 0.590905
v 0.085356 2.102855 -0.531126
v 0.087871 2.108054 -0.506907
v 0.117396 2.099003 -0.004421
v 0.092940 2.101646 -0.006667
v 0.018462 2.089190 -0.010591
v 0.002988 2.074991 -0.009276
v 0.036090 1.586031 -0.543981
v 0.034362 1.581794 -0.518779
v 0.077227 1.587737 0.002045
v 0.096298 1.597119 0.002029
v 0.108322 1.832780 0.691775
v 0.093647 1.833010 0.703575
v 0.003594 2.013503 0.697651
v 0.002852 2.029635 0.689123
v -0.057689 1.831383 -0.693488
v -0.039988 1.831277 -0.709464
v 0.047915 2.004537 -0.707068
v 0.050074 2.019337 -0.696390
v -0.037562 1.952488 -0.701510
v -0.052900 1.951672 -0.687646
v -0.016941 2.019979 -0.692885
v -0.019915 2.005255 -0.703380
v -0.044738 1.710370 -0.708587
v -0.061977 1.709440 -0.694140
v -0.030484 1.657601 -0.710340
v -0.031456 1.644061 -0.698819
v 0.124227 1.708349 -0.709941
v 0.140768 1.708179 -0.694893
v 0.103898 1.656407 -0.709134
v 0.102530 1.643341 -0.696699
v 0.090019 1.961122 0.699638
v 0.107350 1.960824 0.685212
v 0.069479 2.030902 0.684371
v 0.070242 2.016281 0.695938
v 0.096575 1.709405 0.705861
v 0.112159 1.709430 0.692311
v 0.076863 1.657426 0.704919
v 0.076179 1.643936 0.693078
v -0.075424 1.707087 0.702666
v -0.092414 1.706062 0.688613
v -0.055403 1.655855 0.701413
v -0.054433 1.640935 0.690420
v 0.095878 1.583819 -0.518193
v 0.097140 1.588544 -0.543071
v 0.116517 1.596202 -0.354341
v 0.098369 1.587736 -0.354553
v -0.032455 1.579777 -0.520559
v -0.031257 1.584976 -0.545349
v -0.065435 1.577765 -0.356817
v -0.082878 1.585491 -0.356937
v -0.052105 1.561803 0.538435
v -0.050891 1.568503 0.562323
v 0.024101 2.105365 -0.506514
v 0.021562 2.101011 -0.530663
v 0.059296 2.099661 -0.351175
v 0.083965 2.101648 -0.348941
v -0.001245 2.083718 -0.358932
v 0.017839 2.090634 -0.356079
v 0.140958 2.095959 -0.506704
v 0.139844 2.090123 -0.531525
v 0.163215 2.090560 -0.347757
v 0.178588 2.077474 -0.348269
v 0.111479 2.103362 -0.345911
v 0.136177 2.101334 -0.345808
v 0.123495 2.105698 -0.357867
v 0.114076 2.095102 0.349967
v 0.130153 2.081832 0.342892
v -0.032232 2.094260 0.506799
v -0.036956 2.089815 0.537308
v -0.043680 2.074656 0.349531
v -0.024986 2.084962 0.355174
v 0.075843 1.580938 0.529049
v 0.076718 1.586745 0.553850
v 0.106538 1.594282 0.356301
v 0.091933 1.584734 0.357434
v -0.077613 1.955110 0.702114
v -0.093961 1.955644 0.684837
v -0.064381 2.024259 0.685661
v -0.064764 2.009169 0.697970
v 0.154175 2.030270 0.353080
v 0.155656 2.012138 0.353988
v 0.159511 2.021194 0.341418
v 0.141360 1.952137 -0.710640
v 0.157178 1.952745 -0.697356
v 0.117974 2.019876 -0.694639
v 0.114311 2.005956 -0.706676
v 0.081977 2.004817 -0.708094
v 0.083943 2.019209 -0.697069
v 0.133544 1.891399 -0.710932
v 0.149692 1.891336 -0.697928
v -0.028374 2.010969 0.702668
v -0.027705 2.026650 0.692820
v -0.078939 1.891336 0.703437
v -0.095226 1.890638 0.690409
v 0.072454 1.587212 0.182365
v 0.090525 1.595085 0.178796
v 0.049992 1.574620 0.526382
v 0.051099 1.580089 0.551133
v 0.005692 2.080492 0.162433
v -0.012488 2.068918 0.163927
v -0.017703 2.094433 0.486330
v -0.022042 2.090438 0.521385
v -0.011420 2.094167 0.498146
v 0.090873 2.092901 0.162218
v 0.064521 2.092112 0.161001
v 0.075808 2.095558 0.174195
v 0.149289 2.076699 0.168888
v 0.133684 2.086850 0.166178
v 0.110215 2.089217 0.522678
v 0.094172 2.096501 0.516633
v 0.112414 2.098704 -0.529550
v 0.115181 2.104670 -0.505326
v 0.162176 2.089364 -0.506246
v 0.178470 2.077634 -0.518763
v 0.159215 2.084624 -0.531360
v 0.185228 2.078570 -0.171482
v 0.173495 2.092498 -0.170228
v 0.004079 2.100348 -0.508074
v 0.001708 2.095640 -0.532791
v -0.014651 2.089013 -0.523455
v 0.047919 2.110205 -0.504837
v 0.074091 2.110373 -0.505434
v 0.057724 2.107069 -0.527974
v 0.101451 2.106781 -0.175154
v 0.075374 2.101916 -0.180049
v 0.085505 2.105374 -0.164645
v -0.086255 1.562033 0.200177
v -0.064497 1.557607 0.197449
v -0.075912 1.556591 0.216012
v -0.062515 1.568900 0.565649
v -0.080350 1.575541 0.568661
v -0.073392 1.561379 0.546983
v 0.004741 1.584010 -0.544614
v 0.003879 1.578920 -0.519781
v -0.054748 1.580518 -0.520867
v -0.071171 1.588650 -0.534357
v -0.053753 1.585794 -0.545669
v -0.092735 1.580864 -0.179394
v -0.075365 1.573477 -0.179165
v 0.111897 1.584839 -0.517876
v 0.113579 1.589241 -0.542979
v 0.130479 1.592524 -0.531091
v 0.067593 1.587420 -0.543453
v 0.066317 1.582966 -0.518373
v -0.022245 1.641633 0.687882
v -0.022830 1.656498 0.698105
v -0.075864 1.655699 0.702883
v -0.091988 1.644568 0.688616
v -0.074602 1.641018 0.691712
v 0.111067 1.771193 0.692126
v 0.095914 1.771314 0.704523
v 0.095861 1.658169 0.706749
v 0.094886 1.644697 0.694412
v 0.111381 1.648894 0.691508
v 0.043771 1.642986 0.691700
v 0.043567 1.657110 0.702725
v 0.088860 2.029586 0.683782
v 0.088979 2.016118 0.696498
v 0.106010 2.025435 0.680195
v 0.106990 1.894858 0.691367
v 0.090936 1.894496 0.704829
v 0.148260 1.656475 -0.179433
v 0.138793 1.639388 -0.177562
v 0.147342 1.647062 -0.191076
v 0.193914 2.014887 -0.536615
v 0.197545 2.016077 -0.510032
v 0.196700 2.007153 -0.524868
v 0.069224 1.644484 -0.696725
v 0.069971 1.658105 -0.708491
v 0.125084 1.655947 -0.709287
v 0.140703 1.646209 -0.692773
v 0.124290 1.642884 -0.696661
v -0.060026 1.770582 -0.686032
v -0.043905 1.770270 -0.701504
v -0.050826 1.657535 -0.711049
v -0.051998 1.644138 -0.699151
v -0.068678 1.647777 -0.695527
v 0.002564 1.644202 -0.697778
v 0.003294 1.657910 -0.709231
v -0.036545 2.019156 -0.693654
v -0.039409 2.004831 -0.704869
v -0.053930 2.014415 -0.690139
v -0.052050 1.891082 -0.689869
v -0.035026 1.891694 -0.705244
v -0.111115 1.625559 0.529474
v -0.109489 1.626501 0.555542
v -0.112932 1.633629 0.542956
v 0.014081 2.006247 -0.703235
v 0.016813 2.020977 -0.692045
v 0.131428 1.768948 -0.709352
v 0.147054 1.768775 -0.695236
v 0.037933 2.016989 0.694787
v 0.035939 2.032641 0.684663
v -0.073626 1.768852 0.697495
v -0.090807 1.767855 0.685524
v 0.084004 1.590566 -0.177369
v 0.102954 1.598953 -0.177458
v -0.014346 1.562918 0.540457
v -0.014548 1.569726 0.563980
v 0.035870 2.087755 -0.187570
v 0.018199 2.075193 -0.189454
v 0.147847 2.104894 -0.168464
v 0.123666 2.108804 -0.170497
v -0.056090 2.090202 0.539706
v -0.052959 2.094991 0.510288
v -0.073181 2.088833 0.529438
v 0.087480 1.586864 0.548303
v 0.085469 1.582024 0.522590
v 0.102479 1.590965 0.530024
v -0.089655 2.023154 0.691426
v -0.106181 2.016634 0.691855
v -0.093511 2.008508 0.703324
v 0.145289 2.015128 0.530770
v 0.140106 2.033030 0.528369
v 0.142052 2.024689 0.543383
v 0.147343 2.022030 -0.688362
v 0.163194 2.016423 -0.681846
v 0.147479 2.008559 -0.702128
vn -0.8405 -0.5085 0.1868
vn -0.8756 0.4399 0.1992
vn -0.8268 -0.5300 -0.1886
vn -0.8104 0.5830 -0.0576
vn 0.8467 -0.5242 0.0913
vn 0.8113 0.5386 0.2274
vn 0.8361 -0.5381 -0.1063
vn 0.9329 0.2764 -0.2310
vn -0.8469 -0.5288 -0.0568
vn -0.9692 -0.0022 0.2464
vn -0.8072 0.5879 -0.0525
vn -0.9582 0.0690 -0.2777
vn 0.0226 -0.9313 -0.3636
vn 0.0677 0.8844 -0.4617
vn 0.9773 -0.0423 -0.2075
vn 0.7476 -0.6635 0.0301
vn 0.9579 0.2733 0.0882
vn 0.9817 0.0098 0.1904
vn 0.1156 -0.8783 0.4640
vn -0.0729 0.9148 0.3972
vn -0.1221 0.9921 0.0284
vn 0.2518 -0.9675 -0.0228
vn -0.0674 -0.0675 0.9954
vn 0.9970 -0.0372 0.0676
vn -0.1043 -0.0258 -0.9942
vn -0.9647 0.2611 -0.0341
vn -0.9736 0.1704 0.1517
vn -0.8134 0.5731 0.0999
vn -0.9592 0.0758 -0.2723
vn -0.0239 -0.9307 -0.3651
vn 0.0944 0.9124 -0.3983
vn 0.9829 -0.0695 -0.1705
vn 0.7877 -0.6129 0.0629
vn 0.8975 0.4340 0.0780
vn 0.9878 0.0026 0.1559
vn 0.1010 -0.9109 0.4001
vn -0.2495 0.8970 0.3650
vn -0.8567 -0.5121 -0.0614
vn -0.9716 -0.0652 0.2275
vn -0.8719 0.4709 -0.1343
vn -0.9820 0.0717 -0.1747
vn 0.0357 -0.9385 -0.3433
vn -0.0612 0.9010 -0.4296
vn 0.9803 -0.0207 -0.1962
vn 0.9181 -0.3957 -0.0241
vn 0.9731 0.2304 0.0089
vn 0.9720 -0.0126 0.2346
vn 0.0204 -0.8632 0.5044
vn 0.2096 0.9121 0.3523
vn -0.1576 0.9875 0.0055
vn 0.0134 0.9999 0.0069
vn 0.2910 0.9543 0.0680
vn -0.2516 0.9678 0.0099
vn 0.4302 -0.9017 -0.0437
vn 0.1495 -0.9887 0.0095
vn 0.0412 -0.9983 -0.0420
vn 0.1552 -0.9878 -0.0099
vn 0.1683 -0.0484 0.9845
vn -0.1606 -0.0312 0.9865
vn -0.0833 0.0997 0.9915
vn 0.0487 -0.0137 0.9987
vn 0.9993 -0.0311 0.0215
vn 0.9975 -0.0628 0.0314
vn 0.9906 -0.1275 0.0486
vn 0.9813 -0.1824 0.0609
vn -0.0404 -0.0021 -0.9992
vn 0.0884 -0.0183 -0.9959
vn -0.0206 0.0489 -0.9986
vn -0.0286 -0.0124 -0.9995
vn -0.9800 0.1979 -0.0204
vn -0.9886 0.1496 -0.0194
vn -0.9977 -0.0647 -0.0212
vn -0.9225 0.3837 -0.0420
vn -0.9646 0.2448 -0.0975
vn -0.9812 -0.1917 0.0239
vn -0.9980 -0.0050 -0.0633
vn 0.0094 0.0295 -0.9995
vn 0.0459 0.0787 -0.9958
vn -0.0510 0.0128 -0.9986
vn 0.9928 -0.1191 0.0163
vn 0.9904 -0.1355 0.0264
vn 0.9967 -0.0801 0.0097
vn -0.0842 0.0511 0.9951
vn -0.1335 0.0378 0.9903
vn 0.1370 0.0649 0.9884
vn 0.0545 -0.9983 0.0206
vn -0.0006 -0.9999 -0.0159
vn -0.6899 -0.7232 0.0318
vn -0.1463 0.9878 0.0529
vn 0.3664 0.9301 -0.0259
vn 0.2411 0.9705 0.0091
vn -0.2601 0.9632 -0.0677
vn 0.1237 -0.9921 -0.0216
vn 0.0253 0.0352 0.9991
vn 0.9943 -0.0909 0.0548
vn -0.0894 0.0065 -0.9960
vn -0.9468 0.3175 0.0515
vn -0.9666 0.2519 0.0464
vn -0.8142 0.5796 -0.0333
vn -0.9307 -0.2982 -0.2120
vn 0.9148 -0.3894 -0.1077
vn 0.8525 -0.5152 -0.0883
vn 0.8732 0.4678 0.1365
vn 0.9228 -0.3668 0.1178
vn -0.8498 -0.5259 -0.0362
vn -0.9636 -0.0109 0.2672
vn -0.8078 0.5790 -0.1110
vn -0.9547 0.1545 -0.2542
vn 0.0847 -0.9290 -0.3603
vn -0.0210 0.8931 -0.4494
vn 0.9737 -0.0848 -0.2114
vn 0.7895 -0.6137 0.0025
vn 0.9895 0.1346 0.0529
vn 0.9778 -0.0412 0.2052
vn 0.0690 -0.8629 0.5007
vn 0.1104 0.9391 0.3254
vn -0.0127 0.9955 0.0944
vn -0.0936 0.9956 -0.0005
vn -0.0517 0.9979 0.0400
vn 0.2169 -0.9757 -0.0301
vn 0.2729 -0.9619 -0.0186
vn 0.0391 -0.0555 0.9977
vn -0.0186 0.0160 0.9997
vn 0.9884 -0.0049 0.1519
vn 0.9977 -0.0447 0.0513
vn 0.9717 -0.2291 0.0569
vn 0.0797 -0.0230 -0.9966
vn -0.0815 0.0100 -0.9966
vn -0.9877 0.1174 -0.1030
vn -0.9673 0.2535 -0.0125
vn -0.9153 -0.4020 -0.0263
vn -0.9578 0.2855 -0.0324
vn -0.9753 0.0554 0.2138
vn -0.7836 0.6210 0.0198
vn -0.9535 0.0132 -0.3013
vn -0.0215 -0.9303 -0.3662
vn 0.1397 0.8891 -0.4360
vn 0.9807 -0.0422 -0.1907
vn 0.7477 -0.6630 0.0366
vn 0.9249 0.3763 0.0534
vn 0.9851 0.0365 0.1682
vn 0.1512 -0.8931 0.4238
vn -0.1923 0.9086 0.3707
vn -0.8483 -0.5048 -0.1597
vn -0.8995 -0.4073 0.1585
vn -0.8794 0.4759 -0.0114
vn -0.9123 0.4022 -0.0767
vn 0.9638 0.2222 -0.1473
vn 0.8602 -0.4944 0.1248
vn 0.9120 0.3380 0.2323
vn -0.1804 0.9834 -0.0204
vn 0.2688 -0.9632 -0.0000
vn 0.0571 -0.9980 -0.0287
vn -0.0797 -0.0646 0.9947
vn -0.1072 -0.0094 0.9942
vn 0.9994 -0.0279 0.0186
vn 0.9916 -0.0647 -0.1118
vn 0.9909 -0.1171 0.0666
vn 0.9576 0.2763 0.0819
vn -0.0134 -0.0142 -0.9998
vn -0.1095 0.0270 -0.9936
vn -0.9555 0.2882 -0.0626
vn -0.9953 0.0253 0.0933
vn -0.9946 0.0992 -0.0291
vn -0.8166 0.5748 -0.0525
vn -0.9325 0.3581 -0.0471
vn -0.9879 0.1540 0.0177
vn -0.9732 0.2215 -0.0620
vn -0.9623 0.2433 -0.1214
vn -0.9870 -0.1597 0.0161
vn -0.9748 -0.1717 0.1427
vn -1.0000 -0.0012 0.0083
vn -0.9986 0.0489 0.0194
vn -0.9841 -0.0170 -0.1767
vn -0.9990 -0.0240 -0.0367
vn -0.9393 -0.3378 -0.0609
vn -0.9754 0.2118 -0.0611
vn -0.0664 0.0095 -0.9977
vn 0.0339 0.0433 -0.9985
vn 0.0132 0.0775 -0.9969
vn 0.0475 -0.0169 -0.9987
vn -0.0335 0.0247 -0.9991
vn -0.0656 0.0110 -0.9978
vn 0.9842 -0.1766 -0.0106
vn 0.9929 -0.0658 -0.0994
vn 0.9991 -0.0103 0.0415
vn 0.9939 -0.1102 0.0014
vn 0.9818 -0.1765 0.0706
vn 0.9906 -0.1207 -0.0642
vn 0.8921 -0.4494 0.0467
vn 0.9971 -0.0725 0.0227
vn 0.9964 -0.0206 0.0817
vn 0.9932 -0.1147 0.0198
vn 0.9304 -0.3666 -0.0033
vn 0.9954 -0.0951 0.0134
vn -0.0957 0.0078 0.9954
vn -0.1235 0.0031 0.9923
vn -0.1112 0.0708 0.9913
vn -0.2083 0.0329 0.9775
vn 0.0873 0.1055 0.9906
vn 0.2043 0.0431 0.9780
vn 0.0699 -0.9976 0.0008
vn 0.0168 -0.9997 0.0179
vn 0.0321 -0.9989 -0.0354
vn 0.1387 -0.9903 -0.0060
vn 0.1170 -0.9930 -0.0131
vn -0.8640 -0.5009 0.0518
vn 0.1678 -0.9858 -0.0063
vn -0.3366 0.9415 -0.0161
vn 0.4290 0.9030 0.0244
vn 0.8507 0.4674 0.2404
vn 0.1455 0.9893 0.0046
vn -0.0505 0.9985 -0.0193
vn -0.2402 0.9707 -0.0072
vn -0.2777 0.9591 -0.0542
vn 0.1360 -0.9907 -0.0084
vn 0.3658 -0.9294 -0.0492
vn 0.1725 0.0181 0.9849
vn 0.1332 -0.0531 0.9897
vn 0.9927 -0.0599 0.1050
vn 0.9837 -0.1480 0.1018
vn 0.9952 0.0852 0.0489
vn -0.0342 -0.0046 -0.9994
vn -0.0621 0.0059 -0.9981
vn -0.9772 0.2011 -0.0686
vn -0.9119 0.4096 -0.0247
vn -0.9829 0.1830 0.0194
vn -0.8861 0.4549 0.0888
vn -0.8411 0.5408 0.0064
vn -0.9504 0.3074 -0.0476
vn -0.9761 0.1797 -0.1223
vn -0.0186 0.0156 -0.9997
vn 0.9895 0.1242 0.0733
vn 0.9929 -0.1082 0.0495
vn 0.9918 -0.0245 0.1251
vn 0.0424 -0.0639 0.9971
vn 0.2662 -0.9639 -0.0000
vn -0.1818 0.9833 -0.0028
vn 0.1930 -0.9812 -0.0067
vn 0.1263 -0.9919 -0.0130
vn 0.0581 0.0095 0.9983
vn -0.0678 0.0229 0.9974
vn 0.9965 -0.0772 0.0328
vn 0.8939 -0.4481 0.0151
vn 0.9395 -0.3335 0.0778
vn 0.9922 -0.0893 -0.0875
vn 0.9354 -0.3464 -0.0711
vn 0.9922 -0.0608 -0.1086
vn 0.9958 -0.0833 0.0375
vn -0.0484 0.0074 -0.9988
vn -0.0132 -0.0066 -0.9999
vn -0.9874 0.1506 -0.0478
vn -0.9423 -0.3320 -0.0436
vn -0.9313 -0.3269 -0.1608
vn -0.9907 -0.0055 0.1359
vn -0.9877 -0.1527 0.0340
vn -0.9173 0.3976 0.0211
vn -0.9896 0.1256 0.0699
vn -0.9530 0.3012 -0.0315
vn -0.8701 0.4842 -0.0918
vn -0.9967 0.0809 -0.0058
vn -0.9812 0.0585 -0.1839
vn -0.0144 0.0125 -0.9998
vn 0.9998 0.0120 0.0166
vn 0.9931 -0.1050 0.0517
vn 0.9940 -0.0235 0.1069
vn -0.1426 0.0322 0.9893
vn 0.1126 -0.9930 -0.0342
vn 0.6059 0.7283 0.3201
vn -0.8878 0.4600 -0.0147
vn -0.6098 -0.7908 0.0529
vn -0.9910 -0.1308 0.0299
vn -0.9059 -0.3760 0.1949
vn -0.7854 -0.6056 0.1281
vn -0.8560 -0.4039 0.3228
vn -0.6282 -0.7314 -0.2653
vn -0.1896 -0.9186 -0.3468
vn 0.7954 0.5380 -0.2790
vn 0.2879 0.8797 -0.3783
vn 0.2089 -0.9129 0.3507
vn 0.6677 -0.7187 0.1941
vn -0.7082 0.6793 0.1925
vn -0.3603 0.8681 0.3416
vn 0.9042 0.4133 0.1074
vn 0.4224 0.9036 0.0712
vn 0.2245 -0.9030 0.3664
vn 0.2064 -0.9726 0.1071
vn -0.6698 -0.7408 -0.0510
vn -0.1467 -0.9883 -0.0412
vn -0.8136 -0.0356 0.5803
vn -0.1725 -0.0559 0.9834
vn -0.0083 -0.7889 0.6145
vn -0.0611 -0.2868 0.9561
vn 0.8058 -0.5922 -0.0018
vn 0.9811 -0.1934 0.0036
vn 0.9183 -0.3957 -0.0097
vn 0.8667 -0.0253 -0.4982
vn 0.2468 -0.0116 -0.9690
vn 0.0138 -0.8339 -0.5517
vn 0.0087 -0.3415 -0.9398
vn -0.6836 -0.7298 -0.0058
vn -0.9602 -0.2791 0.0090
vn -0.8711 -0.4910 -0.0095
vn 0.1578 -0.9381 -0.3084
vn 0.6221 -0.7588 -0.1929
vn -0.2702 0.8921 -0.3620
vn -0.6534 0.7381 -0.1680
vn 0.9621 0.2606 -0.0802
vn 0.9072 0.2095 -0.3649
vn 0.9219 0.3166 -0.2235
vn -0.2045 -0.8551 0.4763
vn -0.6688 -0.6833 0.2929
vn 0.3801 0.8567 0.3488
vn 0.6867 0.6647 0.2944
vn 0.1319 0.9222 -0.3634
vn 0.1369 0.9844 -0.1103
vn 0.2415 0.9679 0.0699
vn -0.0428 0.9984 0.0378
vn -0.5694 0.8215 -0.0310
vn -0.7724 0.6337 -0.0432
vn 0.0491 -0.9620 -0.2685
vn 0.0612 -0.9956 -0.0711
vn 0.3024 -0.9532 -0.0020
vn 0.6032 -0.7974 0.0168
vn 0.8722 0.0203 0.4887
vn 0.2044 0.0108 0.9788
vn 0.0759 0.2213 0.9722
vn 0.0054 0.6989 0.7152
vn -0.8463 0.0509 -0.5302
vn -0.3942 0.0015 -0.9190
vn -0.0558 0.2922 -0.9547
vn -0.0269 0.7825 -0.6221
vn -0.3103 -0.0012 -0.9506
vn -0.8901 -0.0202 -0.4554
vn -0.0158 0.7928 -0.6093
vn 0.0276 0.2882 -0.9572
vn -0.2994 0.0998 -0.9489
vn -0.8435 0.1002 -0.5277
vn 0.0348 -0.3441 -0.9383
vn 0.0134 -0.8439 -0.5363
vn 0.3287 -0.0126 -0.9443
vn 0.8716 -0.0401 -0.4885
vn -0.0286 -0.3957 -0.9180
vn -0.0269 -0.8636 -0.5034
vn 0.3059 0.0640 0.9499
vn 0.8519 0.0339 0.5226
vn 0.0513 0.7925 0.6077
vn -0.0186 0.3704 0.9287
vn 0.2725 0.0214 0.9619
vn 0.8791 0.0072 0.4766
vn -0.0671 -0.3586 0.9311
vn -0.0048 -0.8463 0.5326
vn -0.3069 0.0406 0.9509
vn -0.8471 0.0186 0.5311
vn 0.0834 -0.3271 0.9413
vn 0.0515 -0.7765 0.6280
vn 0.0489 -0.9956 -0.0800
vn 0.0468 -0.9586 -0.2809
vn 0.6266 -0.7771 0.0600
vn 0.2524 -0.9670 0.0358
vn -0.0257 -0.9937 -0.1093
vn -0.0248 -0.9526 -0.3032
vn -0.2007 -0.9792 -0.0310
vn -0.6570 -0.7519 -0.0550
vn 0.0378 -0.9930 0.1123
vn 0.0591 -0.9149 0.3994
vn -0.2128 0.9767 -0.0263
vn -0.1741 0.9353 -0.3081
vn -0.2297 0.9724 0.0413
vn 0.0592 0.9982 0.0136
vn -0.5958 0.7969 0.1000
vn -0.1494 0.9858 0.0767
vn 0.3003 0.9448 -0.1307
vn 0.2514 0.9022 -0.3506
vn 0.5203 0.8537 -0.0218
vn 0.7920 0.6105 -0.0054
vn -0.0828 0.9958 0.0392
vn 0.2501 0.9682 0.0047
vn 0.1042 0.9917 0.0757
vn 0.5018 0.8649 0.0130
vn 0.7870 0.6142 0.0586
vn 0.0788 0.9946 0.0674
vn 0.1036 0.9655 0.2387
vn -0.6132 0.7787 -0.1329
vn -0.3198 0.9431 -0.0914
vn 0.1967 -0.9745 0.1077
vn 0.1870 -0.9177 0.3506
vn 0.8196 -0.5718 -0.0356
vn 0.3250 -0.9453 -0.0269
vn -0.4164 -0.0218 0.9089
vn -0.9124 -0.0168 0.4090
vn -0.0340 0.7858 0.6176
vn 0.0290 0.3591 0.9328
vn 0.9379 0.3289 0.1106
vn 0.9860 -0.1382 0.0937
vn 0.9851 0.0854 0.1490
vn 0.2812 0.0047 -0.9597
vn 0.8680 -0.0335 -0.4954
vn 0.0416 0.8232 -0.5663
vn 0.0489 0.3694 -0.9280
vn -0.0031 0.3043 -0.9526
vn 0.0113 0.7964 -0.6046
vn 0.2457 -0.0312 -0.9689
vn 0.8543 -0.0820 -0.5132
vn -0.0086 0.2475 0.9688
vn -0.0733 0.7152 0.6950
vn -0.2660 -0.0226 0.9637
vn -0.8531 -0.0091 0.5217
vn 0.2006 -0.9796 -0.0095
vn 0.6316 -0.7752 -0.0111
vn 0.1998 -0.9769 0.0763
vn 0.1968 -0.9247 0.3260
vn -0.4049 0.9135 -0.0396
vn -0.6895 0.7189 -0.0886
vn -0.0498 0.9988 0.0004
vn 0.1600 0.9668 0.1991
vn 0.0068 0.9927 0.1202
vn 0.0817 0.9965 -0.0151
vn -0.1400 0.9892 -0.0427
vn -0.0201 0.9946 -0.1019
vn 0.7834 0.6192 0.0541
vn 0.3392 0.9404 0.0230
vn 0.5961 0.7701 0.2273
vn 0.1122 0.9772 0.1804
vn 0.2070 0.9095 -0.3605
vn 0.2184 0.9671 -0.1302
vn 0.4184 0.9030 -0.0978
vn 0.7123 0.6663 -0.2207
vn 0.3887 0.8515 -0.3520
vn 0.9228 0.3831 0.0404
vn 0.6003 0.7995 0.0229
vn -0.3707 0.9286 -0.0187
vn -0.3271 0.9023 -0.2807
vn -0.6511 0.7539 -0.0874
vn -0.1125 0.9931 -0.0317
vn 0.0817 0.9945 -0.0658
vn -0.0178 0.9473 -0.3199
vn -0.0949 0.9954 -0.0148
vn -0.2441 0.9694 -0.0263
vn -0.1805 0.9834 -0.0204
vn -0.4092 -0.9118 -0.0334
vn -0.0137 -0.9993 -0.0357
vn -0.2184 -0.9757 0.0188
vn -0.0413 -0.8801 0.4731
vn -0.5620 -0.7086 0.4266
vn -0.3028 -0.9379 0.1694
vn 0.0290 -0.9556 -0.2933
vn 0.0426 -0.9947 -0.0937
vn -0.1968 -0.9749 -0.1036
vn -0.5993 -0.7760 -0.1967
vn -0.1830 -0.9313 -0.3150
vn -0.6623 -0.7482 -0.0393
vn -0.1775 -0.9832 -0.0416
vn 0.2148 -0.9756 -0.0460
vn 0.1919 -0.9416 -0.2767
vn 0.5981 -0.7933 -0.1139
vn 0.0443 -0.9619 -0.2700
vn 0.0341 -0.9966 -0.0750
vn 0.0216 -0.7733 0.6336
vn 0.0293 -0.2929 0.9557
vn -0.2610 -0.2670 0.9277
vn -0.6661 -0.5303 0.5245
vn -0.1107 -0.7883 0.6052
vn 0.8750 0.0357 0.4828
vn 0.2278 0.0228 0.9735
vn 0.2681 -0.3006 0.9153
vn 0.1401 -0.8456 0.5152
vn 0.6889 -0.5609 0.4592
vn 0.0016 -0.8207 0.5714
vn -0.0569 -0.3157 0.9471
vn 0.1855 0.8122 0.5531
vn 0.2792 0.3517 0.8935
vn 0.6696 0.5535 0.4952
vn 0.8609 0.0314 0.5078
vn 0.2643 0.0246 0.9641
vn 0.9567 -0.2760 0.0924
vn 0.7742 -0.6297 0.0632
vn 0.8699 -0.4798 0.1139
vn 0.9322 0.2032 -0.2994
vn 0.9965 0.0707 -0.0446
vn 0.9906 -0.0621 -0.1216
vn -0.0186 -0.8438 -0.5363
vn -0.0281 -0.3577 -0.9334
vn 0.3120 -0.3362 -0.8886
vn 0.6735 -0.5978 -0.4347
vn 0.1281 -0.8645 -0.4861
vn -0.8787 0.0230 -0.4769
vn -0.3838 -0.0010 -0.9234
vn -0.2932 -0.2612 -0.9197
vn -0.1383 -0.8389 -0.5264
vn -0.6878 -0.5215 -0.5049
vn 0.0300 -0.8368 -0.5466
vn 0.0430 -0.3391 -0.9398
vn -0.1663 0.8122 -0.5592
vn -0.3022 0.2412 -0.9222
vn -0.7222 0.5353 -0.4380
vn -0.8637 0.0778 -0.4979
vn -0.3648 0.0731 -0.9282
vn -0.9723 -0.2213 0.0752
vn -0.9232 -0.3338 0.1905
vn -0.9637 -0.2476 0.1002
vn -0.0532 0.3278 -0.9433
vn -0.0245 0.8018 -0.5971
vn 0.3214 -0.0177 -0.9468
vn 0.8822 -0.0528 -0.4679
vn 0.0285 0.3162 0.9483
vn 0.0628 0.7516 0.6566
vn -0.2027 0.0347 0.9786
vn -0.8210 -0.0000 0.5709
vn 0.2445 -0.9695 0.0157
vn 0.5944 -0.8034 0.0351
vn 0.1255 -0.9819 0.1416
vn 0.1180 -0.9058 0.4070
vn -0.4580 0.8889 -0.0052
vn -0.6900 0.7236 0.0177
vn 0.3083 0.9509 0.0274
vn 0.0263 0.9996 0.0096
vn -0.1090 0.9508 0.2901
vn -0.1544 0.9880 0.0002
vn -0.5861 0.8046 0.0956
vn 0.3368 -0.9003 0.2758
vn 0.2839 -0.9577 0.0463
vn 0.6780 -0.7271 0.1079
vn -0.1328 0.8311 0.5400
vn -0.8045 0.4532 0.3840
vn -0.2925 0.2026 0.9346
vn 0.9877 0.0922 0.1264
vn 0.8703 0.4768 0.1231
vn 0.9314 0.2979 0.2092
vn 0.2445 0.8444 -0.4767
vn 0.7912 0.4937 -0.3608
vn 0.4099 0.3932 -0.8230
vt 0.593750 0.218750
vt 0.625000 0.250000
vt 0.593750 0.250000
vt 0.686741 0.500000
vt 0.687500 0.527138
vt 0.668593 0.527090
vt 0.830169 0.723339
vt 0.812500 0.750000
vt 0.812500 0.723456
vt 0.850336 0.718750
vt 0.875000 0.750000
vt 0.852089 0.750000
vt 0.598094 0.937500
vt 0.625000 0.940143
vt 0.598191 0.957863
vt 0.750000 0.718750
vt 0.718750 0.750000
vt 0.718750 0.718750
vt 0.812500 0.593750
vt 0.831126 0.625000
vt 0.812500 0.625000
vt 0.250000 0.533617
vt 0.281250 0.562500
vt 0.250000 0.562500
vt 0.250000 0.687500
vt 0.281250 0.716338
vt 0.250000 0.716361
vt 0.218750 0.593750
vt 0.250000 0.625000
vt 0.218750 0.625000
vt 0.531250 0.793986
vt 0.500000 0.812500
vt 0.500000 0.793561
vt 0.531250 0.937500
vt 0.500000 0.956467
vt 0.500000 0.937500
vt 0.500000 0.843750
vt 0.468750 0.875000
vt 0.468750 0.843750
vt 0.531250 0.293290
vt 0.500000 0.312500
vt 0.500000 0.293538
vt 0.500000 0.718750
vt 0.468750 0.750000
vt 0.468750 0.718750
vt 0.500000 0.593750
vt 0.468750 0.625000
vt 0.468750 0.593750
vt 0.625000 0.593750
vt 0.593750 0.625000
vt 0.593750 0.593750
vt 0.531250 0.437500
vt 0.500000 0.456528
vt 0.500000 0.437500
vt 0.468750 0.343750
vt 0.500000 0.375000
vt 0.468750 0.375000
vt 0.588972 0.293995
vt 0.562500 0.312500
vt 0.562500 0.293323
vt 0.468750 0.218750
vt 0.500000 0.250000
vt 0.468750 0.250000
vt 0.500000 0.093750
vt 0.468750 0.125000
vt 0.468750 0.093750
vt 0.625000 0.093750
vt 0.593750 0.125000
vt 0.593750 0.093750
vt 0.562500 0.093750
vt 0.531250 0.125000
vt 0.531250 0.093750
vt 0.531250 0.031250
vt 0.562500 0.062500
vt 0.531250 0.062500
vt 0.625000 0.031250
vt 0.593750 0.062500
vt 0.593750 0.031250
vt 0.437500 0.093750
vt 0.406250 0.125000
vt 0.406250 0.093750
vt 0.437500 0.000000
vt 0.410566 0.031250
vt 0.406250 0.026004
vt 0.468750 0.031250
vt 0.500000 0.062500
vt 0.468750 0.062500
vt 0.437500 0.218750
vt 0.406250 0.250000
vt 0.406250 0.218750
vt 0.437500 0.156250
vt 0.406250 0.187500
vt 0.406250 0.156250
vt 0.500000 0.156250
vt 0.468750 0.187500
vt 0.468750 0.156250
vt 0.531250 0.343750
vt 0.562500 0.375000
vt 0.531250 0.375000
vt 0.562500 0.250000
vt 0.593750 0.276049
vt 0.562500 0.275879
vt 0.875000 0.500000
vt 0.849868 0.531250
vt 0.852074 0.500000
vt 0.383113 0.093750
vt 0.375000 0.125000
vt 0.437500 0.250000
vt 0.468750 0.275899
vt 0.437500 0.276091
vt 0.531250 0.250000
vt 0.500000 0.276632
vt 0.468750 0.437500
vt 0.437500 0.454179
vt 0.437500 0.437500
vt 0.589156 0.794299
vt 0.562500 0.812500
vt 0.562500 0.794557
vt 0.500000 0.406250
vt 0.468750 0.406250
vt 0.562500 0.593750
vt 0.531250 0.625000
vt 0.531250 0.593750
vt 0.562500 0.531250
vt 0.531250 0.562500
vt 0.531250 0.531250
vt 0.402002 0.937500
vt 0.375000 0.955696
vt 0.375000 0.937500
vt 0.531250 0.473446
vt 0.500000 0.500000
vt 0.500000 0.473658
vt 0.437500 0.531250
vt 0.406250 0.562500
vt 0.406250 0.531250
vt 0.468750 0.531250
vt 0.500000 0.562500
vt 0.468750 0.562500
vt 0.437500 0.718750
vt 0.406250 0.750000
vt 0.406250 0.718750
vt 0.406250 0.656250
vt 0.437500 0.687500
vt 0.406250 0.687500
vt 0.500000 0.656250
vt 0.468750 0.687500
vt 0.468750 0.656250
vt 0.531250 0.843750
vt 0.562500 0.875000
vt 0.531250 0.875000
vt 0.562500 0.750000
vt 0.593750 0.775725
vt 0.562500 0.775616
vt 0.649869 0.718750
vt 0.625000 0.750000
vt 0.625000 0.718750
vt 0.375000 0.593750
vt 0.395651 0.625000
vt 0.375000 0.625000
vt 0.437500 0.776055
vt 0.437500 0.750000
vt 0.531250 0.750000
vt 0.500000 0.776229
vt 0.500000 0.750000
vt 0.437500 0.937500
vt 0.468750 0.956264
vt 0.437500 0.956324
vt 0.312500 0.533622
vt 0.328234 0.562500
vt 0.312500 0.562500
vt 0.500000 0.906250
vt 0.468750 0.937500
vt 0.468750 0.906250
vt 0.281250 0.593750
vt 0.312500 0.625000
vt 0.281250 0.625000
vt 0.328919 0.593750
vt 0.312500 0.593750
vt 0.187500 0.533613
vt 0.218750 0.562500
vt 0.187500 0.562500
vt 0.500000 0.973606
vt 0.531250 1.000000
vt 0.500000 1.000000
vt 0.218750 0.500000
vt 0.187500 0.526838
vt 0.187500 0.500000
vt 0.250000 0.500000
vt 0.281250 0.526823
vt 0.250000 0.526775
vt 0.375000 0.979434
vt 0.406250 1.000000
vt 0.375000 1.000000
vt 0.437500 0.562500
vt 0.411382 0.593750
vt 0.406250 0.591385
vt 0.218750 0.656250
vt 0.218750 0.687500
vt 0.179488 0.656250
vt 0.187500 0.687500
vt 0.156250 0.687500
vt 0.750000 0.562500
vt 0.763759 0.593750
vt 0.750000 0.593750
vt 0.718750 0.533661
vt 0.704587 0.562500
vt 0.687500 0.562500
vt 0.281250 0.723431
vt 0.250000 0.750000
vt 0.250000 0.723637
vt 0.718750 0.500000
vt 0.687500 0.500000
vt 0.750000 0.500000
vt 0.781250 0.527740
vt 0.750000 0.527230
vt 0.593750 0.750000
vt 0.625000 0.773614
vt 0.593750 0.775725
vt 0.812500 0.723456
vt 0.781250 0.750000
vt 0.781250 0.722472
vt 0.781250 0.625000
vt 0.750000 0.625000
vt 0.819986 0.687500
vt 0.812500 0.715674
vt 0.812500 0.687500
vt 0.781250 0.656250
vt 0.781250 0.687500
vt 0.312500 0.723728
vt 0.281250 0.750000
vt 0.281250 0.723431
vt 0.312500 0.687500
vt 0.325821 0.716307
vt 0.312500 0.716435
vt 0.281250 0.656250
vt 0.281250 0.687500
vt 0.562500 0.973850
vt 0.593750 1.000000
vt 0.562500 1.000000
vt 0.589159 0.937500
vt 0.562500 0.955359
vt 0.562500 0.937500
vt 0.531250 0.906250
vt 0.589491 0.687500
vt 0.562500 0.718750
vt 0.562500 0.687500
vt 0.531250 0.718750
vt 0.562500 0.656250
vt 0.531250 0.687500
vt 0.531250 0.656250
vt 0.562500 0.473219
vt 0.593750 0.500000
vt 0.562500 0.500000
vt 0.589120 0.437500
vt 0.562500 0.459607
vt 0.562500 0.437500
vt 0.531250 0.406250
vt 0.766312 0.718750
vt 0.750000 0.750000
vt 0.562500 0.218750
vt 0.531250 0.218750
vt 0.562500 0.156250
vt 0.531250 0.187500
vt 0.531250 0.156250
vt 0.625000 0.156250
vt 0.593750 0.187500
vt 0.593750 0.156250
vt 0.562500 0.187500
vt 0.562500 0.125000
vt 0.500000 0.187500
vt 0.500000 0.125000
vt 0.500000 0.218750
vt 0.625000 0.406250
vt 0.597569 0.437500
vt 0.597186 0.406250
vt 0.625000 0.343750
vt 0.597165 0.375000
vt 0.597584 0.343750
vt 0.589032 0.375000
vt 0.562500 0.406250
vt 0.500000 0.456529
vt 0.468750 0.456945
vt 0.375000 0.343750
vt 0.402306 0.375000
vt 0.375000 0.375000
vt 0.588961 0.406250
vt 0.601958 0.687500
vt 0.601689 0.718750
vt 0.562500 0.625000
vt 0.625000 0.656250
vt 0.593750 0.656250
vt 0.500000 0.687500
vt 0.500000 0.625000
vt 0.625000 0.906250
vt 0.598260 0.906250
vt 0.598231 0.843750
vt 0.625000 0.875000
vt 0.598550 0.875000
vt 0.589133 0.906250
vt 0.562500 0.906250
vt 0.500000 0.875000
vt 0.375000 0.843750
vt 0.402150 0.875000
vt 0.375000 0.875000
vt 0.589158 0.937500
vt 0.375000 0.687500
vt 0.350649 0.718750
vt 0.352130 0.687500
vt 0.351174 0.593750
vt 0.350466 0.625000
vt 0.326963 0.656250
vt 0.312500 0.656250
vt 0.250000 0.656250
vt 0.218750 0.716432
vt 0.149147 0.593750
vt 0.125000 0.625000
vt 0.125000 0.593750
vt 0.335553 0.687500
vt 0.849180 0.687500
vt 0.875000 0.718750
vt 0.875000 0.593750
vt 0.850955 0.625000
vt 0.849928 0.593750
vt 0.812500 0.656250
vt 0.750000 0.656250
vt 0.750000 0.687500
vt 0.707020 0.656250
vt 0.718750 0.687500
vt 0.687500 0.687500
vt 0.822760 0.656250
vt 0.737439 0.656250
vt 0.735456 0.593750
vt 0.737426 0.625000
vt 0.704342 0.625000
vt 0.687500 0.656250
vt 0.687500 0.625000
vt 0.663741 0.718750
vt 0.672239 0.687500
vt 0.687500 0.593750
vt 0.668392 0.625000
vt 0.670836 0.593750
vt 0.625000 0.625000
vt 0.648694 0.656250
vt 0.750000 0.533685
vt 0.762503 0.562500
vt 0.648970 0.687500
vt 0.625000 0.687500
vt 0.672239 0.687500
vt 0.668229 0.656250
vt 0.667774 0.533693
vt 0.671156 0.562500
vt 0.649133 0.562500
vt 0.625000 0.562500
vt 0.704291 0.593750
vt 0.625000 0.500000
vt 0.593750 0.526824
vt 0.625000 0.437500
vt 0.597644 0.458545
vt 0.597569 0.437500
vt 0.375000 0.772367
vt 0.375000 0.750000
vt 0.668229 0.656250
vt 0.668393 0.625000
vt 0.781250 0.500000
vt 0.812500 0.527591
vt 0.625000 0.272926
vt 0.632757 0.531250
vt 0.649133 0.562500
vt 0.731375 0.562500
vt 0.718750 0.560095
vt 0.718750 0.527213
vt 0.792222 0.533754
vt 0.812500 0.562500
vt 0.791100 0.562500
vt 0.793158 0.593750
vt 0.831988 0.593750
vt 0.187500 0.656250
vt 0.187500 0.625000
vt 0.375000 0.000000
vt 0.406250 0.026004
vt 0.375000 0.023836
vt 0.187500 0.593750
vt 0.168406 0.625000
vt 0.168563 0.593750
vt 0.149119 0.625000
vt 0.132333 0.656250
vt 0.125000 0.653962
vt 0.375000 0.272611
vt 0.375000 0.250000
vt 0.406250 0.033586
vt 0.380630 0.062500
vt 0.383302 0.033644
vt 0.812500 0.533745
vt 0.829474 0.562500
vt 0.168014 0.533613
vt 0.168729 0.562500
vt 0.148950 0.562500
vt 0.125000 0.562500
vt 0.329569 0.625000
vt 0.168729 0.562500
vt 0.168563 0.593750
vt 0.375000 0.292893
vt 0.402324 0.312500
vt 0.375000 0.312500
vt 0.125000 0.500000
vt 0.149481 0.531250
vt 0.125000 0.531250
vt 0.168406 0.625000
vt 0.218750 0.723502
vt 0.187500 0.750000
vt 0.187500 0.723357
vt 0.281250 0.500000
vt 0.312500 0.526896
vt 0.281250 0.526823
vt 0.375000 0.477982
vt 0.406250 0.500000
vt 0.375000 0.500000
vt 0.312500 0.500000
vt 0.329704 0.526867
vt 0.218750 0.533619
vt 0.250000 0.526775
vt 0.218750 0.526852
vt 0.281250 0.533618
vt 0.250000 0.593750
vt 0.437500 0.906250
vt 0.437500 0.875000
vt 0.411074 0.906250
vt 0.411123 0.937500
vt 0.437500 0.843750
vt 0.411006 0.875000
vt 0.411062 0.843750
vt 0.402150 0.875000
vt 0.375000 0.906250
vt 0.663741 0.718750
vt 0.687500 0.750000
vt 0.667189 0.750000
vt 0.172736 0.723458
vt 0.169304 0.750000
vt 0.401993 0.906250
vt 0.406250 0.775963
vt 0.375000 0.812500
vt 0.402130 0.843750
vt 0.562500 0.843750
vt 0.589148 0.875000
vt 0.352633 0.750000
vt 0.330317 0.750000
vt 0.312500 0.750000
vt 0.411115 0.794150
vt 0.437500 0.812500
vt 0.411091 0.812500
vt 0.411074 0.906250
vt 0.411091 0.812500
vt 0.437500 0.973749
vt 0.468750 1.000000
vt 0.437500 1.000000
vt 0.562500 0.775616
vt 0.531250 0.776042
vt 0.589105 0.812500
vt 0.597863 0.793897
vt 0.625000 0.812500
vt 0.598191 0.812500
vt 0.468750 0.812500
vt 0.468750 0.793783
vt 0.468750 0.776149
vt 0.531250 0.812500
vt 0.437500 0.656250
vt 0.437500 0.625000
vt 0.375000 0.656250
vt 0.411382 0.593750
vt 0.411696 0.625000
vt 0.395651 0.625000
vt 0.375000 0.718750
vt 0.437500 0.500000
vt 0.468750 0.500000
vt 0.500000 0.531250
vt 0.375000 0.531250
vt 0.375000 0.562500
vt 0.411696 0.625000
vt 0.589308 0.531250
vt 0.593750 0.562500
vt 0.562500 0.562500
vt 0.396648 0.593750
vt 0.589308 0.531250
vt 0.437500 0.062500
vt 0.406250 0.062500
vt 0.625000 0.533785
vt 0.593750 0.533725
vt 0.531250 0.500000
vt 0.437500 0.406250
vt 0.437500 0.375000
vt 0.411061 0.437500
vt 0.411180 0.406250
vt 0.437500 0.343750
vt 0.411161 0.375000
vt 0.410996 0.343750
vt 0.375000 0.406250
vt 0.812500 0.500000
vt 0.830991 0.527423
vt 0.350575 0.531250
vt 0.352982 0.500000
vt 0.402268 0.406250
vt 0.375000 0.437500
vt 0.406250 0.276007
vt 0.402325 0.343750
vt 0.562500 0.343750
vt 0.646088 0.500000
vt 0.625000 0.525848
vt 0.167926 0.526845
vt 0.167893 0.500000
vt 0.437500 0.293525
vt 0.410924 0.312500
vt 0.410991 0.293644
vt 0.411180 0.406250
vt 0.437500 0.312500
vt 0.410924 0.312500
vt 0.437500 0.473824
vt 0.531250 0.276286
vt 0.589135 0.343750
vt 0.625000 0.292104
vt 0.597601 0.312500
vt 0.597539 0.294267
vt 0.468750 0.291777
vt 0.468750 0.312500
vt 0.562500 0.293323
vt 0.531250 0.312500
vt 0.531250 0.293290
vt 0.500000 0.343750
vt 0.437500 0.187500
vt 0.437500 0.125000
vt 0.375000 0.156250
vt 0.375000 0.187500
vt 0.375000 0.218750
vt 0.437500 0.031250
vt 0.468750 0.000000
vt 0.500000 0.031250
vt 0.149347 0.656250
vt 0.129844 0.687500
vt 0.149293 0.724592
vt 0.125000 0.750000
vt 0.125000 0.726164
vt 0.589142 0.718750
vt 0.402179 0.437500
vt 0.375000 0.455560
vt 0.132829 0.716291
vt 0.562500 0.031250
vt 0.593750 0.000000
vt 0.562500 0.000000
vt 0.625000 0.000000
vt 0.500000 0.000000
vt 0.531250 0.000000
vt 0.625000 0.062500
vt 0.625000 0.375000
vt 0.597186 0.406250
vt 0.625000 0.312500
vt 0.597601 0.312500
vt 0.406250 0.474110
vt 0.411025 0.456582
vt 0.468750 0.473810
vt 0.437500 0.593750
vt 0.598550 0.875000
vt 0.598231 0.843750
vt 0.437500 0.793927
vt 0.406250 0.974310
vt 0.411103 0.956363
vt 0.468750 0.973768
vt 0.351097 0.656250
vt 0.351258 0.562500
vt 0.351174 0.593750
vt 0.351258 0.562500
vt 0.187500 0.716359
vt 0.187500 0.716359
vt 0.156250 0.716431
vt 0.218750 0.723502
vt 0.218750 0.750000
vt 0.875000 0.625000
vt 0.850507 0.656250
vt 0.850955 0.625000
vt 0.875000 0.562500
vt 0.849483 0.562500
vt 0.849482 0.562500
vt 0.737438 0.656250
vt 0.737426 0.625000
vt 0.731375 0.562500
vt 0.687500 0.718750
vt 0.649498 0.593750
vt 0.781250 0.714179
vt 0.875000 0.656250
vt 0.849180 0.687500
vt 0.375000 0.794683
vt 0.402118 0.812500
vt 0.281250 0.716338
vt 0.351097 0.656250
vt 0.352130 0.687500
vt 0.531250 0.973724
vt 0.531250 0.956121
vt 0.625000 0.977089
vt 0.593750 0.974016
vt 0.601689 0.718750
vt 0.593750 0.685104
vt 0.562500 0.473219
vt 0.531250 0.456629
vt 0.625000 0.478912
vt 0.593750 0.474618
vt 0.625000 0.187500
vt 0.125000 0.716101
vt 0.125000 0.718750
vt 0.414904 0.624493
vt 0.406250 0.627331
vt 0.375000 0.093750
vt 0.375000 0.096038
vt 0.622046 0.529177
vt 0.708146 0.561974
vt 0.587097 0.687180
vt 0.785542 0.720998
vt 0.728821 0.656528
vt 0.718750 0.658280
vt 0.649286 0.531250
vt 0.831713 0.533795
vt 0.766068 0.533718
vt 0.796569 0.593692
vt 0.781250 0.596184
vt 0.159233 0.655131
vt 0.156250 0.658806
vt 0.329580 0.533621
vt 0.406250 0.974310
vt 0.402016 0.956207
vt 0.402139 0.794354
vt 0.401764 0.593471
vt 0.406250 0.591385
vt 0.592912 0.535708
vt 0.402178 0.456807
vt 0.402305 0.293599
vt 0.408228 0.028955
vt 0.831239 0.715790
vt 0.326789 0.723354
vt 0.593750 0.974016
vt 0.589070 0.958958
vt 0.597498 0.718383
vt 0.593750 0.724062
vt 0.593750 0.474618
vt 0.589249 0.459752
vt 0.125000 0.656250
vt 0.125000 0.687500
vt 0.589120 0.437500
vt 0.588961 0.406250
vt 0.531250 0.456629
vt 0.589133 0.906250
vt 0.312500 0.716435
vt 0.819986 0.687500
vt 0.649241 0.625000
vt 0.687500 0.533683
vt 0.649498 0.593750
vt 0.832896 0.500000
vt 0.156250 0.716431
vt 0.187500 0.723357
vt 0.149481 0.531250
vt 0.147611 0.500000
vt 0.187500 0.526838
vt 0.149119 0.625000
vt 0.330560 0.500000
vt 0.402002 0.937500
vt 0.406250 0.775963
vt 0.437500 0.776055
vt 0.589105 0.812500
vt 0.625000 0.792189
vt 0.437500 0.473824
vt 0.500000 0.276632
vt 0.437500 0.276091
vt 0.588949 0.312500
vt 0.589135 0.343750
vt 0.468750 0.456945
vt 0.589250 0.843750
vt 0.589250 0.843750
vt 0.468750 0.973768
vt 0.500000 0.956467
vt 0.328234 0.562500
vt 0.218750 0.716432
vt 0.250000 0.723637
vt 0.831988 0.593750
vt 0.829474 0.562500
vt 0.335553 0.687500
vt 0.625000 0.438259
vt 0.380630 0.062500
vt 0.625000 0.218750
vt 0.815143 0.750000
vt 0.625000 0.937500
vt 0.625000 0.125000
vt 0.406250 0.000000
vt 0.875000 0.531250
vt 0.648614 0.750000
vt 0.781250 0.722472
vt 0.625000 0.843750
vt 0.875000 0.687500
vt 0.781250 0.714179
vt 0.718750 0.658280
vt 0.718750 0.533661
vt 0.593750 0.533725
vt 0.593750 0.526824
vt 0.145566 0.750000
vt 0.625000 1.000000
vt 0.125000 0.687166
s 1
f 270/1/270 4/2/4 147/3/147
f 279/4/279 374/5/374 429/6/429
f 518/7/518 37/8/37 383/9/383
f 520/10/520 2/11/2 282/12/282
f 392/13/392 283/14/283 524/15/524
f 117/16/117 116/17/116 269/18/269
f 209/19/209 319/20/319 53/21/53
f 322/22/322 203/23/203 55/24/55
f 54/25/54 411/26/411 287/27/287
f 268/28/268 22/29/22 153/30/153
f 475/31/475 59/32/59 326/33/326
f 219/34/219 291/35/291 58/36/58
f 122/37/122 155/38/155 267/39/267
f 498/40/498 67/41/67 330/42/330
f 124/43/124 141/44/141 266/45/266
f 125/46/125 158/47/158 265/48/265
f 113/49/113 159/50/159 264/51/264
f 224/52/224 298/53/298 66/54/66
f 263/55/263 25/56/25 161/57/161
f 495/58/495 77/59/77 333/60/333
f 262/61/262 12/62/12 135/63/135
f 130/64/130 164/65/164 261/66/261
f 107/67/107 165/68/165 260/69/260
f 166/70/166 132/71/132 259/72/259
f 258/73/258 74/74/74 168/75/168
f 146/76/146 169/77/169 257/78/257
f 170/79/170 131/80/131 256/81/256
f 39/82/39 501/83/501 500/84/500
f 255/85/255 71/86/71 173/87/173
f 174/88/174 100/89/100 254/90/254
f 175/91/175 176/92/176 253/93/253
f 162/94/162 177/95/177 252/96/252
f 251/97/251 69/98/69 128/99/128
f 41/100/41 496/101/496 334/102/334
f 4/103/4 434/104/434 307/105/307
f 302/106/302 131/80/131 9/107/9
f 29/108/29 487/109/487 338/110/338
f 108/111/108 329/112/329 12/62/12
f 183/113/183 341/114/341 79/115/79
f 472/116/472 83/117/83 345/118/345
f 160/119/160 183/113/183 250/120/250
f 184/121/184 126/122/126 249/123/249
f 185/124/185 186/125/186 248/126/248
f 356/127/356 311/128/311 48/129/48
f 404/130/404 15/131/15 297/132/297
f 189/133/189 190/134/190 247/135/247
f 246/136/246 63/137/63 191/138/191
f 192/139/192 104/140/104 245/141/245
f 244/142/244 82/143/82 194/144/194
f 156/145/156 195/146/195 243/147/243
f 242/148/242 61/149/61 123/150/123
f 47/151/47 473/152/473 346/153/346
f 423/154/423 6/155/6 103/156/103
f 139/157/139 294/158/294 16/159/16
f 141/44/141 350/160/350 35/161/35
f 114/162/114 325/163/325 18/164/18
f 85/165/85 508/166/508 353/167/353
f 357/168/357 360/169/360 86/170/86
f 154/171/154 201/172/201 241/173/241
f 240/174/240 57/175/57 121/176/121
f 86/170/86 510/177/510 202/178/202
f 361/179/361 205/180/205 87/181/87
f 290/182/290 133/183/133 10/184/10
f 136/185/136 362/186/362 30/187/30
f 13/188/13 457/189/457 321/190/321
f 312/191/312 145/192/145 1/193/1
f 81/194/81 476/195/476 478/196/478
f 239/197/239 54/25/54 208/198/208
f 442/199/442 88/200/88 207/201/207
f 51/202/51 438/203/438 118/204/118
f 426/205/426 378/206/378 90/207/90
f 412/208/412 19/209/19 286/210/286
f 137/211/137 374/5/374 31/212/31
f 14/213/14 437/214/437 315/215/315
f 150/216/150 314/217/314 473/218/473
f 383/219/383 143/220/143 416/221/416
f 438/203/438 119/222/119 21/223/21
f 385/224/385 382/225/382 92/226/92
f 238/227/238 92/226/92 215/228/215
f 387/229/387 142/230/142 412/231/412
f 93/232/93 522/233/522 386/234/386
f 237/235/237 93/232/93 217/236/217
f 391/237/391 98/238/98 27/239/27
f 393/240/393 390/241/390 94/242/94
f 236/243/236 94/242/94 219/34/219
f 395/244/395 220/245/220 95/246/95
f 235/247/235 47/151/47 114/162/114
f 221/248/221 222/249/222 234/250/234
f 398/251/398 148/252/148 44/253/44
f 400/254/400 397/255/397 96/256/96
f 232/257/232 96/256/96 224/52/224
f 417/258/417 143/220/143 20/259/20
f 225/260/225 108/111/108 231/261/231
f 226/262/226 227/263/227 230/264/230
f 134/265/134 228/266/228 229/267/229
f 229/267/229 97/268/97 226/262/226
f 165/68/165 226/262/226 73/269/73
f 165/68/165 134/265/134 229/267/229
f 230/264/230 70/270/70 162/94/162
f 132/71/132 162/94/162 26/271/26
f 73/269/73 230/264/230 132/71/132
f 231/261/231 12/62/12 129/272/129
f 227/263/227 129/272/129 70/270/70
f 97/268/97 231/261/231 227/263/227
f 137/273/137 399/274/399 402/275/402
f 110/276/110 332/277/332 503/278/503
f 331/279/331 223/280/223 69/98/69
f 160/119/160 224/52/224 66/54/66
f 25/56/25 232/257/232 160/119/160
f 128/99/128 223/280/223 232/257/232
f 183/113/183 298/281/298 504/282/504
f 136/283/136 299/284/299 13/285/13
f 401/286/401 96/256/96 223/280/223
f 394/287/394 103/156/103 528/288/528
f 159/50/159 221/248/221 65/289/65
f 159/50/159 140/290/140 233/291/233
f 234/250/234 62/292/62 156/145/156
f 24/293/24 234/250/234 156/145/156
f 65/289/65 234/250/234 126/122/126
f 235/247/235 18/164/18 124/43/124
f 222/249/222 124/43/124 62/292/62
f 95/246/95 235/247/235 222/249/222
f 143/294/143 392/13/392 406/295/406
f 507/296/507 20/297/20 328/298/328
f 61/149/61 405/299/405 218/300/218
f 236/243/236 58/36/58 154/171/154
f 123/150/123 154/171/154 23/301/23
f 123/150/123 218/300/218 236/243/236
f 58/36/58 508/166/508 201/172/201
f 142/302/142 292/303/292 19/304/19
f 218/300/218 393/305/393 94/242/94
f 45/306/45 523/307/523 388/308/388
f 511/309/511 16/159/16 324/310/324
f 57/175/57 409/311/409 216/312/216
f 152/313/152 217/236/217 54/25/54
f 22/29/22 237/235/237 152/313/152
f 121/176/121 216/312/216 237/235/237
f 208/198/208 287/27/287 512/314/512
f 452/315/452 9/316/9 105/317/105
f 216/312/216 389/318/389 93/232/93
f 384/319/384 146/320/146 520/10/520
f 134/321/134 320/322/320 515/323/515
f 319/20/319 214/324/214 53/21/53
f 151/325/151 215/228/215 50/326/50
f 119/222/119 151/325/151 21/223/21
f 53/21/53 238/227/238 119/222/119
f 215/228/215 417/258/417 117/16/117
f 418/327/418 213/328/213 91/329/91
f 413/330/413 92/226/92 214/324/214
f 419/331/419 50/326/50 213/328/213
f 517/332/517 21/223/21 318/333/318
f 317/334/317 212/335/212 52/336/52
f 91/329/91 424/337/424 380/338/380
f 210/339/210 285/340/285 431/341/431
f 17/342/17 421/343/421 140/290/140
f 316/344/316 370/345/370 51/202/51
f 140/290/140 381/346/381 34/347/34
f 212/335/212 380/348/380 422/349/422
f 427/350/427 90/207/90 375/351/375
f 376/352/376 113/49/113 46/353/46
f 516/354/516 52/336/52 210/339/210
f 8/355/8 479/356/479 148/252/148
f 31/357/31 530/358/530 399/359/399
f 104/140/104 281/360/281 5/361/5
f 52/336/52 422/362/422 285/363/285
f 375/351/375 210/339/210 431/341/431
f 378/206/378 210/339/210 90/207/90
f 110/364/110 368/365/368 437/214/437
f 147/3/147 307/366/307 496/101/496
f 310/367/310 376/368/376 46/353/46
f 316/344/316 377/369/377 379/370/379
f 137/211/137 315/215/315 425/371/425
f 435/372/435 89/373/89 369/374/369
f 439/375/439 53/21/53 119/222/119
f 369/374/369 209/19/209 439/375/439
f 89/373/89 514/376/514 209/19/209
f 239/197/239 88/200/88 206/377/206
f 153/30/153 206/377/206 56/378/56
f 153/30/153 152/313/152 239/197/239
f 1/379/1 500/380/500 275/381/275
f 204/382/204 289/383/289 453/384/453
f 288/385/288 301/386/301 303/387/303
f 100/89/100 276/388/276 3/389/3
f 499/390/499 272/391/272 273/392/273
f 367/393/367 372/394/372 89/373/89
f 449/395/449 87/181/87 363/396/363
f 364/397/364 105/317/105 38/398/38
f 202/178/202 323/399/323 57/175/57
f 363/400/363 204/382/204 453/401/453
f 277/402/277 340/403/340 30/404/30
f 3/405/3 450/406/450 144/407/144
f 289/408/289 206/377/206 442/199/442
f 144/407/144 364/397/364 38/398/38
f 513/409/513 48/410/48 366/411/366
f 109/412/109 358/413/358 457/414/457
f 305/415/305 101/416/101 7/417/7
f 42/418/42 455/419/455 358/413/358
f 448/420/448 55/24/55 205/180/205
f 136/185/136 321/421/321 447/422/447
f 458/423/458 86/170/86 203/23/203
f 120/424/120 121/176/121 22/29/22
f 55/24/55 240/174/240 120/424/120
f 203/23/203 202/178/202 240/174/240
f 200/425/200 201/172/201 85/165/85
f 60/426/60 241/173/241 200/425/200
f 155/38/155 154/171/154 241/173/241
f 460/427/460 85/165/85 355/428/355
f 198/429/198 293/430/293 470/431/470
f 292/432/292 115/433/115 19/304/19
f 424/434/424 49/435/49 313/436/313
f 444/437/444 48/410/48 311/438/311
f 459/439/459 48/129/48 115/433/115
f 35/161/35 468/440/468 104/140/104
f 36/441/36 469/442/469 142/302/142
f 196/443/196 327/444/327 61/149/61
f 523/307/523 5/361/5 281/445/281
f 387/229/387 280/446/280 36/447/36
f 466/448/466 84/449/84 351/450/351
f 293/430/293 200/425/200 460/451/460
f 351/452/351 198/429/198 470/431/470
f 354/453/354 106/454/106 39/455/39
f 114/162/114 346/456/346 474/457/474
f 348/458/348 196/443/196 83/117/83
f 471/459/471 49/460/49 347/461/347
f 326/33/326 199/462/199 465/463/465
f 18/164/18 464/464/464 141/44/141
f 345/118/345 197/465/197 475/31/475
f 122/37/122 123/150/123 23/301/23
f 197/465/197 122/37/122 59/32/59
f 197/465/197 196/443/196 242/148/242
f 193/466/193 195/146/195 82/143/82
f 64/467/64 243/147/243 193/466/193
f 24/293/24 243/147/243 158/47/158
f 244/142/244 45/306/45 112/468/112
f 476/469/476 64/467/64 295/470/295
f 294/471/294 244/142/244 112/468/112
f 245/141/245 5/361/5 149/472/149
f 45/306/45 245/141/245 149/472/149
f 194/144/194 192/139/192 245/141/245
f 189/133/189 191/138/191 81/194/81
f 32/473/32 246/136/246 189/133/189
f 138/474/138 157/475/157 246/136/246
f 102/476/102 190/134/190 33/477/33
f 7/417/7 247/135/247 102/476/102
f 32/473/32 247/135/247 101/416/101
f 295/478/295 193/466/193 244/142/244
f 481/479/481 187/480/187 80/481/80
f 190/134/190 477/482/477 139/157/139
f 148/252/148 481/483/481 185/124/185
f 501/83/501 75/484/75 172/485/172
f 308/486/308 187/480/187 480/487/480
f 248/126/248 63/137/63 157/475/157
f 15/131/15 248/126/248 157/475/157
f 44/253/44 248/126/248 111/488/111
f 125/46/125 126/122/126 24/293/24
f 186/125/186 125/46/125 63/137/63
f 80/481/80 249/123/249 186/125/186
f 250/120/250 79/115/79 182/489/182
f 161/57/161 182/489/182 68/490/68
f 25/56/25 250/120/250 161/57/161
f 182/489/182 343/491/343 483/492/483
f 180/493/180 300/494/300 493/495/493
f 299/284/299 109/496/109 13/285/13
f 43/497/43 433/498/433 368/365/368
f 7/417/7 456/499/456 305/500/305
f 482/501/482 42/502/42 109/496/109
f 29/108/29 491/503/491 100/89/100
f 30/404/30 492/504/492 136/283/136
f 178/505/178 331/279/331 69/98/69
f 278/506/278 310/367/310 309/507/309
f 30/187/30 451/508/451 277/509/277
f 337/510/337 339/511/339 489/512/489
f 68/490/68 483/513/483 300/494/300
f 78/514/78 493/495/493 339/515/339
f 342/516/342 138/474/138 32/473/32
f 41/100/41 497/517/497 108/111/108
f 77/59/77 502/518/502 178/505/178
f 306/519/306 335/520/335 494/521/494
f 488/522/488 67/41/67 181/523/181
f 12/62/12 487/109/487 135/63/135
f 333/524/333 179/525/179 498/526/498
f 251/97/251 25/56/25 127/527/127
f 179/525/179 127/527/127 67/41/67
f 179/525/179 178/505/178 251/97/251
f 252/96/252 76/528/76 175/91/175
f 164/65/164 175/91/175 72/529/72
f 26/271/26 252/96/252 164/65/164
f 105/530/105 176/92/176 38/531/38
f 131/80/131 105/530/105 9/107/9
f 72/529/72 253/93/253 131/80/131
f 254/90/254 3/389/3 144/532/144
f 38/531/38 254/90/254 144/532/144
f 76/528/76 254/90/254 176/92/176
f 255/85/255 75/484/75 171/533/171
f 39/82/39 255/85/255 171/533/171
f 106/534/106 163/535/163 255/85/255
f 441/536/441 207/201/207 271/537/271
f 445/538/445 1/539/1 275/540/275
f 527/541/527 150/216/150 47/151/47
f 344/542/344 304/543/304 42/502/42
f 207/201/207 274/544/274 271/537/271
f 172/485/172 170/79/170 256/81/256
f 257/78/257 74/74/74 167/545/167
f 98/546/98 167/545/167 27/547/27
f 2/548/2 257/78/257 98/546/98
f 163/535/163 168/75/168 71/86/71
f 10/549/10 258/73/258 163/535/163
f 133/550/133 167/545/167 258/73/258
f 259/72/259 26/271/26 130/64/130
f 71/86/71 259/72/259 130/64/130
f 168/75/168 166/70/166 259/72/259
f 260/69/260 73/269/73 166/70/166
f 169/77/169 166/70/166 74/74/74
f 40/551/40 260/69/260 169/77/169
f 261/66/261 72/529/72 170/79/170
f 173/87/173 170/79/170 75/484/75
f 71/86/71 261/66/261 173/87/173
f 262/61/262 29/108/29 174/88/174
f 177/95/177 174/88/174 76/528/76
f 70/270/70 262/61/262 177/95/177
f 14/552/14 402/553/402 332/277/332
f 43/554/43 503/278/503 335/555/335
f 488/522/488 78/514/78 337/510/337
f 263/55/263 68/490/68 180/493/180
f 181/523/181 180/493/180 78/514/78
f 67/41/67 263/55/263 181/523/181
f 485/556/485 32/473/32 101/416/101
f 79/115/79 484/557/484 343/491/343
f 505/558/505 15/131/15 138/474/138
f 264/51/264 65/289/65 184/121/184
f 187/480/187 184/121/184 80/481/80
f 46/353/46 264/51/264 187/480/187
f 188/559/188 158/47/158 64/467/64
f 81/194/81 265/48/265 188/559/188
f 191/138/191 125/46/125 265/48/265
f 266/45/266 35/161/35 192/139/192
f 82/143/82 266/45/266 192/139/192
f 62/292/62 266/45/266 195/146/195
f 328/560/328 143/294/143 406/295/406
f 49/460/49 507/561/507 347/461/347
f 349/562/349 199/462/199 84/449/84
f 198/429/198 155/38/155 60/426/60
f 199/462/199 198/429/198 84/449/84
f 59/32/59 267/39/267 199/462/199
f 462/563/462 39/455/39 145/192/145
f 355/428/355 353/167/353 461/564/461
f 509/565/509 10/184/10 106/454/106
f 324/310/324 112/468/112 410/566/410
f 359/567/359 139/157/139 511/568/511
f 456/499/456 33/477/33 359/569/359
f 204/382/204 153/30/153 56/378/56
f 87/181/87 268/28/268 204/382/204
f 205/180/205 120/424/120 268/28/268
f 208/198/208 365/570/365 88/200/88
f 207/201/207 365/571/365 446/572/446
f 513/573/513 19/209/19 115/574/115
f 11/575/11 414/576/414 320/577/320
f 28/578/28 515/323/515 371/579/371
f 434/104/434 28/578/28 371/580/371
f 21/223/21 419/581/419 318/582/318
f 377/583/377 118/204/118 517/332/517
f 381/346/381 103/156/103 34/347/34
f 211/584/211 116/17/116 49/435/49
f 91/329/91 269/18/269 211/584/211
f 50/326/50 269/18/269 213/328/213
f 430/585/430 17/342/17 113/49/113
f 92/226/92 415/586/415 215/228/215
f 107/587/107 384/588/384 414/576/414
f 280/589/280 352/590/352 36/441/36
f 93/232/93 411/591/411 217/236/217
f 410/592/410 45/306/45 388/593/388
f 391/237/391 133/183/133 408/594/408
f 219/34/219 390/241/390 407/595/407
f 282/596/282 98/238/98 525/597/525
f 528/598/528 6/155/6 150/216/150
f 233/291/233 395/244/395 95/246/95
f 140/290/140 394/287/394 396/599/396
f 398/600/398 111/488/111 404/130/404
f 96/256/96 403/601/403 224/52/224
f 278/602/278 148/252/148 531/603/531
f 225/260/225 147/3/147 41/100/41
f 228/266/228 225/260/225 97/268/97
f 28/604/28 270/1/270 228/266/228
f 273/605/273 274/544/274 275/606/275
f 294/158/294 295/607/295 296/608/296
f 301/609/301 302/106/302 303/610/303
f 308/486/308 309/611/309 310/367/310
f 377/583/377 378/612/378 379/370/379
f 394/287/394 395/613/395 396/599/396
f 415/586/415 416/614/416 417/258/417
f 418/327/418 419/615/419 420/616/420
f 427/350/427 428/617/428 429/6/429
f 432/618/432 433/498/433 434/104/434
f 435/372/435 436/619/436 437/214/437
f 438/203/438 439/620/439 440/621/440
f 441/536/441 442/622/442 443/623/443
f 444/437/444 445/538/445 446/572/446
f 449/395/449 450/406/450 451/508/451
f 454/624/454 455/419/455 456/499/456
f 461/564/461 462/625/462 463/626/463
f 466/448/466 467/627/467 468/440/468
f 471/459/471 472/116/472 473/218/473
f 476/469/476 477/628/477 478/629/478
f 479/356/479 480/630/480 481/479/481
f 484/557/484 485/556/485 486/631/486
f 489/512/489 490/632/490 491/503/491
f 494/521/494 495/58/495 496/101/496
f 499/390/499 500/633/500 501/83/501
f 518/7/518 519/634/519 520/10/520
f 521/635/521 522/233/522 523/307/523
f 524/15/524 525/636/525 526/637/526
f 527/541/527 528/638/528 529/639/529
f 530/358/530 531/640/531 532/641/532
f 271/537/271 302/642/302 301/386/301
f 271/537/271 273/605/273 272/643/272
f 402/275/402 400/644/400 401/286/401
f 332/277/332 401/645/401 331/279/331
f 404/130/404 298/53/298 403/646/403
f 404/130/404 397/255/397 398/600/398
f 392/13/392 405/647/405 406/295/406
f 406/295/406 327/444/327 328/560/328
f 408/594/408 291/35/291 407/595/407
f 408/594/408 390/241/390 391/237/391
f 388/593/388 409/311/409 410/592/410
f 410/566/410 323/399/323 324/310/324
f 412/208/412 287/27/287 411/26/411
f 412/231/412 386/648/386 387/229/387
f 414/576/414 385/649/385 413/330/413
f 320/577/320 413/330/413 319/20/319
f 416/221/416 382/225/382 383/219/383
f 318/582/318 418/327/418 317/334/317
f 422/349/422 381/346/381 421/343/421
f 422/362/422 284/650/284 285/363/285
f 313/436/313 423/154/423 424/434/424
f 380/338/380 423/154/423 381/346/381
f 373/651/373 425/371/425 426/205/426
f 316/344/316 425/371/425 315/215/315
f 427/350/427 376/368/376 428/617/428
f 429/6/429 278/506/278 279/4/279
f 427/350/427 374/5/374 373/651/373
f 431/341/431 284/650/284 430/585/430
f 375/351/375 430/652/430 376/352/376
f 371/580/371 432/618/432 434/104/434
f 307/105/307 433/498/433 306/653/306
f 432/618/432 368/365/368 433/498/433
f 369/374/369 436/619/436 435/372/435
f 436/619/436 315/215/315 437/214/437
f 435/372/435 368/365/368 367/393/367
f 439/375/439 370/345/370 369/374/369
f 289/408/289 441/536/441 288/385/288
f 311/438/311 445/538/445 444/437/444
f 445/538/445 274/544/274 446/654/446
f 366/655/366 446/572/446 365/571/365
f 448/420/448 362/186/362 447/422/447
f 322/22/322 447/422/447 321/421/321
f 449/395/449 364/397/364 450/656/450
f 451/508/451 276/657/276 277/509/277
f 361/179/361 451/508/451 362/658/362
f 453/384/453 288/659/288 452/315/452
f 453/401/453 364/397/364 363/400/363
f 359/569/359 454/624/454 456/499/456
f 305/500/305 455/419/455 304/660/304
f 454/624/454 358/413/358 455/419/455
f 458/423/458 321/190/321 457/189/457
f 357/168/357 457/414/457 358/413/358
f 460/427/460 356/661/356 459/439/459
f 460/451/460 292/432/292 293/430/293
f 355/428/355 463/626/463 356/127/356
f 462/625/462 311/128/311 463/626/463
f 354/453/354 461/564/461 353/167/353
f 349/562/349 464/464/464 465/463/465
f 465/463/465 325/163/325 326/33/326
f 351/450/351 467/627/467 466/448/466
f 280/589/280 468/662/468 467/627/467
f 466/448/466 350/663/350 349/562/349
f 293/430/293 469/442/469 470/431/470
f 470/431/470 352/590/352 351/452/351
f 471/459/471 348/664/348 472/116/472
f 472/116/472 346/153/346 473/152/473
f 313/665/313 473/218/473 314/217/314
f 326/33/326 474/457/474 475/31/475
f 345/118/345 474/457/474 346/456/346
f 295/470/295 477/482/477 476/469/476
f 480/487/480 309/507/309 308/486/308
f 483/492/483 344/542/344 482/501/482
f 300/494/300 482/501/482 299/284/299
f 343/491/343 486/631/486 344/542/344
f 485/556/485 304/543/304 486/631/486
f 342/666/342 484/557/484 341/114/341
f 488/522/488 338/110/338 487/109/487
f 488/522/488 329/667/329 330/42/330
f 489/512/489 340/403/340 490/632/490
f 277/402/277 491/503/491 490/632/490
f 489/512/489 338/668/338 337/510/337
f 493/495/493 299/284/299 492/504/492
f 339/515/339 492/504/492 340/403/340
f 494/521/494 336/669/336 495/58/495
f 495/58/495 334/102/334 496/101/496
f 494/521/494 307/366/307 306/519/306
f 330/42/330 497/517/497 498/40/498
f 498/526/498 334/102/334 333/524/333
f 273/392/273 500/380/500 499/390/499
f 332/277/332 502/670/502 503/278/503
f 335/555/335 502/518/502 336/669/336
f 342/516/342 504/671/504 505/558/505
f 297/132/297 504/282/504 298/281/298
f 328/298/328 506/672/506 507/296/507
f 347/461/347 506/673/506 348/458/348
f 509/674/509 353/167/353 508/166/508
f 290/182/290 508/166/508 291/675/291
f 324/310/324 510/177/510 511/309/511
f 511/568/511 360/676/360 359/567/359
f 366/411/366 512/677/512 513/409/513
f 286/678/286 512/314/512 287/27/287
f 515/323/515 319/20/319 514/679/514
f 515/323/515 372/680/372 371/579/371
f 517/332/517 317/334/317 516/354/516
f 517/332/517 378/206/378 377/583/377
f 282/12/282 518/7/518 520/10/520
f 384/319/384 519/634/519 385/224/385
f 383/9/383 519/634/519 518/7/518
f 281/445/281 521/635/521 523/307/523
f 388/308/388 522/233/522 389/681/389
f 521/635/521 386/234/386 522/233/522
f 524/15/524 393/240/393 392/13/392
f 391/237/391 526/637/526 525/636/525
f 282/596/282 524/15/524 283/14/283
f 528/288/528 395/244/395 394/287/394
f 399/359/399 532/641/532 400/254/400
f 398/251/398 532/641/532 531/640/531
f 531/603/531 279/682/279 278/602/278
f 172/485/172 302/106/302 272/683/272
f 270/1/270 99/684/99 4/2/4
f 279/4/279 31/212/31 374/5/374
f 518/7/518 283/685/283 37/8/37
f 520/10/520 146/320/146 2/11/2
f 392/13/392 37/686/37 283/14/283
f 117/16/117 20/259/20 116/17/116
f 209/19/209 514/679/514 319/20/319
f 322/22/322 458/423/458 203/23/203
f 54/25/54 217/236/217 411/26/411
f 268/28/268 120/424/120 22/29/22
f 475/31/475 197/465/197 59/32/59
f 219/34/219 407/595/407 291/35/291
f 122/37/122 23/301/23 155/38/155
f 498/40/498 179/525/179 67/41/67
f 124/43/124 18/164/18 141/44/141
f 125/46/125 24/293/24 158/47/158
f 113/49/113 17/342/17 159/50/159
f 224/52/224 403/646/403 298/53/298
f 263/55/263 127/527/127 25/56/25
f 495/58/495 336/669/336 77/59/77
f 262/61/262 129/272/129 12/62/12
f 130/64/130 26/271/26 164/65/164
f 107/67/107 11/687/11 165/68/165
f 166/70/166 73/269/73 132/71/132
f 258/73/258 167/545/167 74/74/74
f 146/76/146 40/551/40 169/77/169
f 170/79/170 72/529/72 131/80/131
f 500/84/500 145/688/145 39/82/39
f 39/82/39 171/533/171 501/83/501
f 255/85/255 163/535/163 71/86/71
f 174/88/174 29/108/29 100/89/100
f 175/91/175 76/528/76 176/92/176
f 162/94/162 70/270/70 177/95/177
f 251/97/251 178/505/178 69/98/69
f 41/100/41 147/3/147 496/101/496
f 4/103/4 99/689/99 434/104/434
f 9/107/9 303/610/303 302/106/302
f 302/106/302 256/81/256 131/80/131
f 29/108/29 135/63/135 487/109/487
f 108/111/108 497/517/497 329/112/329
f 183/113/183 504/671/504 341/114/341
f 472/116/472 348/664/348 83/117/83
f 160/119/160 66/54/66 183/113/183
f 184/121/184 65/289/65 126/122/126
f 185/124/185 80/481/80 186/125/186
f 356/127/356 463/626/463 311/128/311
f 404/130/404 111/488/111 15/131/15
f 189/133/189 81/194/81 190/134/190
f 246/136/246 157/475/157 63/137/63
f 192/139/192 35/161/35 104/140/104
f 244/142/244 193/466/193 82/143/82
f 156/145/156 62/292/62 195/146/195
f 242/148/242 196/443/196 61/149/61
f 47/151/47 150/216/150 473/152/473
f 423/154/423 314/690/314 6/155/6
f 139/157/139 477/482/477 294/158/294
f 141/44/141 464/464/464 350/160/350
f 114/162/114 474/457/474 325/163/325
f 85/165/85 201/172/201 508/166/508
f 357/168/357 454/624/454 360/169/360
f 154/171/154 58/36/58 201/172/201
f 240/174/240 202/178/202 57/175/57
f 86/170/86 360/676/360 510/177/510
f 361/179/361 448/420/448 205/180/205
f 290/182/290 408/594/408 133/183/133
f 136/185/136 447/422/447 362/186/362
f 13/188/13 109/412/109 457/189/457
f 312/191/312 462/625/462 145/192/145
f 478/196/478 190/134/190 81/194/81
f 81/194/81 188/559/188 476/195/476
f 239/197/239 152/313/152 54/25/54
f 207/201/207 443/623/443 442/199/442
f 442/199/442 206/377/206 88/200/88
f 51/202/51 370/345/370 438/203/438
f 90/207/90 373/651/373 426/205/426
f 426/205/426 379/370/379 378/206/378
f 412/208/412 142/230/142 19/209/19
f 137/211/137 425/371/425 374/5/374
f 14/213/14 110/364/110 437/214/437
f 150/216/150 6/155/6 314/217/314
f 383/219/383 37/8/37 143/220/143
f 21/223/21 118/204/118 438/203/438
f 438/203/438 440/621/440 119/222/119
f 385/224/385 519/634/519 382/225/382
f 238/227/238 214/324/214 92/226/92
f 387/229/387 36/447/36 142/230/142
f 93/232/93 389/681/389 522/233/522
f 237/235/237 216/312/216 93/232/93
f 391/237/391 525/636/525 98/238/98
f 393/240/393 526/637/526 390/241/390
f 236/243/236 218/300/218 94/242/94
f 395/244/395 527/541/527 220/245/220
f 235/247/235 220/245/220 47/151/47
f 221/248/221 95/246/95 222/249/222
f 398/251/398 531/640/531 148/252/148
f 400/254/400 532/641/532 397/255/397
f 232/257/232 223/280/223 96/256/96
f 20/259/20 117/16/117 417/258/417
f 417/258/417 416/691/416 143/220/143
f 225/260/225 41/100/41 108/111/108
f 226/262/226 97/268/97 227/263/227
f 134/265/134 28/604/28 228/266/228
f 229/267/229 228/266/228 97/268/97
f 165/68/165 229/267/229 226/262/226
f 165/68/165 11/687/11 134/265/134
f 230/264/230 227/263/227 70/270/70
f 132/71/132 230/264/230 162/94/162
f 73/269/73 226/262/226 230/264/230
f 231/261/231 108/111/108 12/62/12
f 227/263/227 231/261/231 129/272/129
f 97/268/97 225/260/225 231/261/231
f 137/273/137 31/357/31 399/274/399
f 110/276/110 14/552/14 332/277/332
f 331/279/331 401/645/401 223/280/223
f 160/119/160 232/257/232 224/52/224
f 25/56/25 128/99/128 232/257/232
f 128/99/128 69/98/69 223/280/223
f 183/113/183 66/54/66 298/281/298
f 136/283/136 492/504/492 299/284/299
f 401/286/401 400/644/400 96/256/96
f 394/287/394 34/347/34 103/156/103
f 159/50/159 233/291/233 221/248/221
f 159/50/159 17/342/17 140/290/140
f 234/250/234 222/249/222 62/292/62
f 24/293/24 126/122/126 234/250/234
f 65/289/65 221/248/221 234/250/234
f 235/247/235 114/162/114 18/164/18
f 222/249/222 235/247/235 124/43/124
f 95/246/95 220/245/220 235/247/235
f 143/294/143 37/686/37 392/13/392
f 507/296/507 116/692/116 20/297/20
f 61/149/61 327/444/327 405/299/405
f 236/243/236 219/34/219 58/36/58
f 123/150/123 236/243/236 154/171/154
f 123/150/123 61/149/61 218/300/218
f 58/36/58 291/675/291 508/166/508
f 142/302/142 469/442/469 292/303/292
f 218/300/218 405/647/405 393/305/393
f 45/306/45 149/472/149 523/307/523
f 511/309/511 139/157/139 16/159/16
f 57/175/57 323/399/323 409/311/409
f 152/313/152 237/235/237 217/236/217
f 22/29/22 121/176/121 237/235/237
f 121/176/121 57/175/57 216/312/216
f 208/198/208 54/25/54 287/27/287
f 452/315/452 288/659/288 9/316/9
f 216/312/216 409/311/409 389/318/389
f 384/319/384 40/693/40 146/320/146
f 134/321/134 11/575/11 320/322/320
f 319/20/319 413/330/413 214/324/214
f 151/325/151 238/227/238 215/228/215
f 119/222/119 238/227/238 151/325/151
f 53/21/53 214/324/214 238/227/238
f 117/16/117 50/326/50 215/228/215
f 215/228/215 415/694/415 417/258/417
f 91/329/91 212/335/212 418/327/418
f 418/327/418 420/695/420 213/328/213
f 413/330/413 385/649/385 92/226/92
f 213/328/213 420/616/420 419/331/419
f 419/331/419 151/325/151 50/326/50
f 517/332/517 118/204/118 21/223/21
f 317/334/317 418/327/418 212/335/212
f 91/329/91 211/584/211 424/337/424
f 210/339/210 52/336/52 285/340/285
f 17/342/17 284/650/284 421/343/421
f 316/344/316 436/619/436 370/345/370
f 140/290/140 421/343/421 381/346/381
f 212/335/212 91/329/91 380/348/380
f 427/350/427 373/651/373 90/207/90
f 376/352/376 430/652/430 113/49/113
f 516/354/516 317/334/317 52/336/52
f 8/355/8 309/507/309 479/356/479
f 31/357/31 279/682/279 530/358/530
f 104/140/104 468/662/468 281/360/281
f 52/336/52 212/335/212 422/362/422
f 375/351/375 90/207/90 210/339/210
f 378/206/378 516/354/516 210/339/210
f 110/364/110 43/497/43 368/365/368
f 147/3/147 4/2/4 307/366/307
f 46/353/46 308/486/308 310/367/310
f 310/367/310 428/617/428 376/368/376
f 379/370/379 426/696/426 316/344/316
f 316/344/316 51/202/51 377/369/377
f 137/211/137 14/213/14 315/215/315
f 435/372/435 367/393/367 89/373/89
f 119/222/119 440/621/440 439/375/439
f 439/375/439 209/19/209 53/21/53
f 369/374/369 89/373/89 209/19/209
f 89/373/89 372/680/372 514/376/514
f 239/197/239 208/198/208 88/200/88
f 153/30/153 239/197/239 206/377/206
f 153/30/153 22/29/22 152/313/152
f 1/379/1 145/688/145 500/380/500
f 204/382/204 56/378/56 289/383/289
f 303/387/303 9/316/9 288/385/288
f 288/385/288 441/536/441 301/386/301
f 100/89/100 491/503/491 276/388/276
f 499/390/499 172/485/172 272/391/272
f 367/393/367 432/618/432 372/394/372
f 449/395/449 361/179/361 87/181/87
f 364/397/364 452/315/452 105/317/105
f 202/178/202 510/177/510 323/399/323
f 363/400/363 87/181/87 204/382/204
f 277/402/277 490/632/490 340/403/340
f 3/405/3 276/657/276 450/406/450
f 289/408/289 56/378/56 206/377/206
f 144/407/144 450/656/450 364/397/364
f 513/409/513 115/574/115 48/410/48
f 109/412/109 42/418/42 358/413/358
f 305/415/305 485/556/485 101/416/101
f 42/418/42 304/660/304 455/419/455
f 448/420/448 322/22/322 55/24/55
f 136/185/136 13/188/13 321/421/321
f 458/423/458 357/168/357 86/170/86
f 120/424/120 240/174/240 121/176/121
f 55/24/55 203/23/203 240/174/240
f 203/23/203 86/170/86 202/178/202
f 200/425/200 241/173/241 201/172/201
f 60/426/60 155/38/155 241/173/241
f 155/38/155 23/301/23 154/171/154
f 460/427/460 200/425/200 85/165/85
f 198/429/198 60/426/60 293/430/293
f 292/432/292 459/439/459 115/433/115
f 424/434/424 211/584/211 49/435/49
f 444/437/444 366/655/366 48/410/48
f 459/439/459 356/661/356 48/129/48
f 35/161/35 350/663/350 468/440/468
f 36/441/36 352/590/352 469/442/469
f 196/443/196 506/672/506 327/444/327
f 523/307/523 149/472/149 5/361/5
f 387/229/387 521/635/521 280/446/280
f 466/448/466 349/562/349 84/449/84
f 293/430/293 60/426/60 200/425/200
f 351/452/351 84/449/84 198/429/198
f 354/453/354 509/674/509 106/454/106
f 114/162/114 47/151/47 346/456/346
f 348/458/348 506/673/506 196/443/196
f 471/459/471 313/665/313 49/460/49
f 326/33/326 59/32/59 199/462/199
f 18/164/18 325/163/325 464/464/464
f 345/118/345 83/117/83 197/465/197
f 122/37/122 242/148/242 123/150/123
f 197/465/197 242/148/242 122/37/122
f 197/465/197 83/117/83 196/443/196
f 193/466/193 243/147/243 195/146/195
f 64/467/64 158/47/158 243/147/243
f 24/293/24 156/145/156 243/147/243
f 244/142/244 194/144/194 45/306/45
f 476/469/476 188/559/188 64/467/64
f 112/468/112 16/159/16 294/471/294
f 294/471/294 296/608/296 244/142/244
f 245/141/245 104/140/104 5/361/5
f 45/306/45 194/144/194 245/141/245
f 194/144/194 82/143/82 192/139/192
f 189/133/189 246/136/246 191/138/191
f 32/473/32 138/474/138 246/136/246
f 138/474/138 15/131/15 157/475/157
f 102/476/102 247/135/247 190/134/190
f 7/417/7 101/416/101 247/135/247
f 32/473/32 189/133/189 247/135/247
f 244/142/244 296/608/296 295/478/295
f 295/478/295 64/467/64 193/466/193
f 80/481/80 185/124/185 481/479/481
f 481/479/481 480/697/480 187/480/187
f 139/157/139 33/477/33 190/134/190
f 190/134/190 478/629/478 477/482/477
f 185/124/185 44/253/44 148/252/148
f 148/252/148 479/698/479 481/483/481
f 172/485/172 499/390/499 501/83/501
f 501/83/501 171/533/171 75/484/75
f 308/486/308 46/353/46 187/480/187
f 248/126/248 186/125/186 63/137/63
f 15/131/15 111/488/111 248/126/248
f 44/253/44 185/124/185 248/126/248
f 125/46/125 249/123/249 126/122/126
f 186/125/186 249/123/249 125/46/125
f 80/481/80 184/121/184 249/123/249
f 250/120/250 183/113/183 79/115/79
f 161/57/161 250/120/250 182/489/182
f 25/56/25 160/119/160 250/120/250
f 182/489/182 79/115/79 343/491/343
f 180/493/180 68/490/68 300/494/300
f 299/284/299 482/501/482 109/496/109
f 43/497/43 306/653/306 433/498/433
f 7/417/7 102/476/102 456/499/456
f 482/501/482 344/542/344 42/502/42
f 29/108/29 338/668/338 491/503/491
f 30/404/30 340/403/340 492/504/492
f 178/505/178 502/670/502 331/279/331
f 309/507/309 8/355/8 278/506/278
f 278/506/278 428/617/428 310/367/310
f 30/187/30 362/658/362 451/508/451
f 337/510/337 78/514/78 339/511/339
f 68/490/68 182/489/182 483/513/483
f 78/514/78 180/493/180 493/495/493
f 342/516/342 505/558/505 138/474/138
f 41/100/41 334/102/334 497/517/497
f 77/59/77 336/669/336 502/518/502
f 306/519/306 43/554/43 335/520/335
f 488/522/488 330/42/330 67/41/67
f 12/62/12 329/667/329 487/109/487
f 333/524/333 77/59/77 179/525/179
f 251/97/251 128/99/128 25/56/25
f 179/525/179 251/97/251 127/527/127
f 179/525/179 77/59/77 178/505/178
f 252/96/252 177/95/177 76/528/76
f 164/65/164 252/96/252 175/91/175
f 26/271/26 162/94/162 252/96/252
f 105/530/105 253/93/253 176/92/176
f 131/80/131 253/93/253 105/530/105
f 72/529/72 175/91/175 253/93/253
f 254/90/254 100/89/100 3/389/3
f 38/531/38 176/92/176 254/90/254
f 76/528/76 174/88/174 254/90/254
f 255/85/255 173/87/173 75/484/75
f 39/82/39 106/534/106 255/85/255
f 106/534/106 10/549/10 163/535/163
f 271/537/271 301/386/301 441/536/441
f 441/536/441 443/623/443 207/201/207
f 445/538/445 312/699/312 1/539/1
f 47/151/47 220/245/220 527/541/527
f 527/541/527 529/639/529 150/216/150
f 344/542/344 486/631/486 304/543/304
f 207/201/207 446/654/446 274/544/274
f 172/485/172 75/484/75 170/79/170
f 257/78/257 169/77/169 74/74/74
f 98/546/98 257/78/257 167/545/167
f 2/548/2 146/76/146 257/78/257
f 163/535/163 258/73/258 168/75/168
f 10/549/10 133/550/133 258/73/258
f 133/550/133 27/547/27 167/545/167
f 259/72/259 132/71/132 26/271/26
f 71/86/71 168/75/168 259/72/259
f 168/75/168 74/74/74 166/70/166
f 260/69/260 165/68/165 73/269/73
f 169/77/169 260/69/260 166/70/166
f 40/551/40 107/67/107 260/69/260
f 261/66/261 164/65/164 72/529/72
f 173/87/173 261/66/261 170/79/170
f 71/86/71 130/64/130 261/66/261
f 262/61/262 135/63/135 29/108/29
f 177/95/177 262/61/262 174/88/174
f 70/270/70 129/272/129 262/61/262
f 14/552/14 137/273/137 402/553/402
f 43/554/43 110/276/110 503/278/503
f 488/522/488 181/523/181 78/514/78
f 263/55/263 161/57/161 68/490/68
f 181/523/181 263/55/263 180/493/180
f 67/41/67 127/527/127 263/55/263
f 485/556/485 342/666/342 32/473/32
f 79/115/79 341/114/341 484/557/484
f 505/558/505 297/132/297 15/131/15
f 264/51/264 159/50/159 65/289/65
f 187/480/187 264/51/264 184/121/184
f 46/353/46 113/49/113 264/51/264
f 188/559/188 265/48/265 158/47/158
f 81/194/81 191/138/191 265/48/265
f 191/138/191 63/137/63 125/46/125
f 266/45/266 141/44/141 35/161/35
f 82/143/82 195/146/195 266/45/266
f 62/292/62 124/43/124 266/45/266
f 328/560/328 20/297/20 143/294/143
f 49/460/49 116/692/116 507/561/507
f 349/562/349 465/463/465 199/462/199
f 198/429/198 267/39/267 155/38/155
f 199/462/199 267/39/267 198/429/198
f 59/32/59 122/37/122 267/39/267
f 462/563/462 354/453/354 39/455/39
f 355/428/355 85/165/85 353/167/353
f 509/565/509 290/182/290 10/184/10
f 324/310/324 16/159/16 112/468/112
f 359/567/359 33/477/33 139/157/139
f 456/499/456 102/476/102 33/477/33
f 204/382/204 268/28/268 153/30/153
f 87/181/87 205/180/205 268/28/268
f 205/180/205 55/24/55 120/424/120
f 208/198/208 512/677/512 365/570/365
f 207/201/207 88/200/88 365/571/365
f 513/573/513 286/678/286 19/209/19
f 11/575/11 107/587/107 414/576/414
f 28/578/28 134/321/134 515/323/515
f 434/104/434 99/689/99 28/578/28
f 21/223/21 151/325/151 419/581/419
f 377/583/377 51/202/51 118/204/118
f 381/346/381 423/154/423 103/156/103
f 211/584/211 269/18/269 116/17/116
f 91/329/91 213/328/213 269/18/269
f 50/326/50 117/16/117 269/18/269
f 430/585/430 284/650/284 17/342/17
f 92/226/92 382/225/382 415/586/415
f 107/587/107 40/693/40 384/588/384
f 280/589/280 467/627/467 352/590/352
f 93/232/93 386/648/386 411/591/411
f 410/592/410 112/468/112 45/306/45
f 391/237/391 27/239/27 133/183/133
f 219/34/219 94/242/94 390/241/390
f 282/596/282 2/700/2 98/238/98
f 150/216/150 529/639/529 528/598/528
f 528/598/528 103/156/103 6/155/6
f 95/246/95 221/248/221 233/291/233
f 233/291/233 396/599/396 395/244/395
f 396/599/396 233/291/233 140/290/140
f 140/290/140 34/347/34 394/287/394
f 398/600/398 44/253/44 111/488/111
f 96/256/96 397/255/397 403/601/403
f 278/602/278 8/355/8 148/252/148
f 225/260/225 270/1/270 147/3/147
f 228/266/228 270/1/270 225/260/225
f 28/604/28 99/684/99 270/1/270
f 271/537/271 272/701/272 302/642/302
f 271/537/271 274/544/274 273/605/273
f 402/275/402 399/274/399 400/644/400
f 332/277/332 402/553/402 401/645/401
f 404/130/404 297/132/297 298/53/298
f 404/130/404 403/601/403 397/255/397
f 392/13/392 393/305/393 405/647/405
f 406/295/406 405/299/405 327/444/327
f 408/594/408 290/182/290 291/35/291
f 408/594/408 407/595/407 390/241/390
f 388/593/388 389/318/389 409/311/409
f 410/566/410 409/311/409 323/399/323
f 412/208/412 286/210/286 287/27/287
f 412/231/412 411/591/411 386/648/386
f 414/576/414 384/588/384 385/649/385
f 320/577/320 414/576/414 413/330/413
f 416/221/416 415/586/415 382/225/382
f 318/582/318 419/581/419 418/327/418
f 422/349/422 380/348/380 381/346/381
f 422/362/422 421/343/421 284/650/284
f 313/436/313 314/690/314 423/154/423
f 380/338/380 424/337/424 423/154/423
f 373/651/373 374/5/374 425/371/425
f 316/344/316 426/696/426 425/371/425
f 427/350/427 375/351/375 376/368/376
f 429/6/429 428/617/428 278/506/278
f 427/350/427 429/6/429 374/5/374
f 431/341/431 285/340/285 284/650/284
f 375/351/375 431/341/431 430/652/430
f 371/580/371 372/394/372 432/618/432
f 307/105/307 434/104/434 433/498/433
f 432/618/432 367/393/367 368/365/368
f 369/374/369 370/345/370 436/619/436
f 436/619/436 316/344/316 315/215/315
f 435/372/435 437/214/437 368/365/368
f 439/375/439 438/203/438 370/345/370
f 289/408/289 442/199/442 441/536/441
f 311/438/311 312/699/312 445/538/445
f 445/538/445 275/540/275 274/544/274
f 366/655/366 444/437/444 446/572/446
f 448/420/448 361/179/361 362/186/362
f 322/22/322 448/420/448 447/422/447
f 449/395/449 363/396/363 364/397/364
f 451/508/451 450/406/450 276/657/276
f 361/179/361 449/395/449 451/508/451
f 453/384/453 289/383/289 288/659/288
f 453/401/453 452/315/452 364/397/364
f 359/569/359 360/169/360 454/624/454
f 305/500/305 456/499/456 455/419/455
f 454/624/454 357/168/357 358/413/358
f 458/423/458 322/22/322 321/190/321
f 357/168/357 458/423/458 457/414/457
f 460/427/460 355/428/355 356/661/356
f 460/451/460 459/439/459 292/432/292
f 355/428/355 461/564/461 463/626/463
f 462/625/462 312/191/312 311/128/311
f 354/453/354 462/563/462 461/564/461
f 349/562/349 350/160/350 464/464/464
f 465/463/465 464/464/464 325/163/325
f 351/450/351 352/590/352 467/627/467
f 280/589/280 281/360/281 468/662/468
f 466/448/466 468/440/468 350/663/350
f 293/430/293 292/303/292 469/442/469
f 470/431/470 469/442/469 352/590/352
f 471/459/471 347/461/347 348/664/348
f 472/116/472 345/118/345 346/153/346
f 313/665/313 471/459/471 473/218/473
f 326/33/326 325/163/325 474/457/474
f 345/118/345 475/31/475 474/457/474
f 295/470/295 294/158/294 477/482/477
f 480/487/480 479/356/479 309/507/309
f 483/492/483 343/491/343 344/542/344
f 300/494/300 483/513/483 482/501/482
f 343/491/343 484/557/484 486/631/486
f 485/556/485 305/415/305 304/543/304
f 342/666/342 485/556/485 484/557/484
f 488/522/488 337/510/337 338/110/338
f 488/522/488 487/109/487 329/667/329
f 489/512/489 339/511/339 340/403/340
f 277/402/277 276/388/276 491/503/491
f 489/512/489 491/503/491 338/668/338
f 493/495/493 300/494/300 299/284/299
f 339/515/339 493/495/493 492/504/492
f 494/521/494 335/520/335 336/669/336
f 495/58/495 333/60/333 334/102/334
f 494/521/494 496/101/496 307/366/307
f 330/42/330 329/112/329 497/517/497
f 498/526/498 497/517/497 334/102/334
f 273/392/273 275/381/275 500/380/500
f 332/277/332 331/279/331 502/670/502
f 335/555/335 503/278/503 502/518/502
f 342/516/342 341/114/341 504/671/504
f 297/132/297 505/558/505 504/282/504
f 328/298/328 327/444/327 506/672/506
f 347/461/347 507/561/507 506/673/506
f 509/674/509 354/453/354 353/167/353
f 290/182/290 509/565/509 508/166/508
f 324/310/324 323/399/323 510/177/510
f 511/568/511 510/177/510 360/676/360
f 366/411/366 365/570/365 512/677/512
f 286/678/286 513/573/513 512/314/512
f 515/323/515 320/322/320 319/20/319
f 515/323/515 514/376/514 372/680/372
f 517/332/517 318/333/318 317/334/317
f 517/332/517 516/354/516 378/206/378
f 282/12/282 283/685/283 518/7/518
f 384/319/384 520/10/520 519/634/519
f 383/9/383 382/225/382 519/634/519
f 281/445/281 280/446/280 521/635/521
f 388/308/388 523/307/523 522/233/522
f 521/635/521 387/229/387 386/234/386
f 524/15/524 526/637/526 393/240/393
f 391/237/391 390/241/390 526/637/526
f 282/596/282 525/597/525 524/15/524
f 528/288/528 527/541/527 395/244/395
f 399/359/399 530/358/530 532/641/532
f 398/251/398 397/255/397 532/641/532
f 531/603/531 530/358/530 279/682/279
f 172/485/172 256/81/256 302/106/302
