# Blender 4.0.1
# www.blender.org
mtllib lancet.mtl
o Cylinder
v -0.600000 1.500000 -0.100000
v 0.200000 1.500000 -0.100000
v -0.600000 1.465859 -0.098079
v 0.200000 1.465859 -0.098079
v -0.600000 1.433030 -0.092388
v 0.200000 1.433030 -0.092388
v -0.600000 1.402775 -0.083147
v 0.200000 1.402775 -0.083147
v -0.600000 1.376256 -0.070711
v 0.200000 1.376256 -0.070711
v -0.600000 1.354493 -0.055557
v 0.200000 1.354493 -0.055557
v -0.600000 1.338321 -0.038268
v 0.200000 1.338321 -0.038268
v -0.600000 1.328363 -0.019509
v 0.200000 1.328363 -0.019509
v -0.600000 1.325000 0.000000
v 0.200000 1.325000 0.000000
v -0.600000 1.328363 0.019509
v 0.200000 1.328363 0.019509
v -0.600000 1.338321 0.038268
v 0.200000 1.338321 0.038268
v -0.600000 1.354493 0.055557
v 0.200000 1.354493 0.055557
v -0.600000 1.376256 0.070711
v 0.200000 1.376256 0.070711
v -0.600000 1.402775 0.083147
v 0.200000 1.402775 0.083147
v -0.600000 1.433030 0.092388
v 0.200000 1.433030 0.092388
v -0.600000 1.465859 0.098079
v 0.200000 1.465859 0.098079
v -0.600000 1.500000 0.100000
v 0.200000 1.500000 0.100000
v -0.600000 1.534141 0.098079
v 0.200000 1.534141 0.098079
v -0.600000 1.566970 0.092388
v 0.200000 1.566970 0.092388
v -0.600000 1.597225 0.083147
v 0.200000 1.597225 0.083147
v -0.600000 1.623744 0.070711
v 0.200000 1.623744 0.070711
v -0.600000 1.645507 0.055557
v 0.200000 1.645507 0.055557
v -0.600000 1.661679 0.038268
v 0.200000 1.661679 0.038268
v -0.600000 1.671637 0.019509
v 0.200000 1.671637 0.019509
v -0.600000 1.675000 0.000000
v 0.200000 1.675000 0.000000
v -0.600000 1.671637 -0.019509
v 0.200000 1.671637 -0.019509
v -0.600000 1.661679 -0.038268
v 0.200000 1.661679 -0.038268
v -0.600000 1.645507 -0.055557
v 0.200000 1.645507 -0.055557
v -0.600000 1.623744 -0.070711
v 0.200000 1.623744 -0.070711
v -0.600000 1.597225 -0.083147
v 0.200000 1.597225 -0.083147
v -0.600000 1.566970 -0.092388
v 0.200000 1.566970 -0.092388
v -0.600000 1.534141 -0.098079
v 0.200000 1.534141 -0.098079
v 0.200000 1.500000 -0.100000
v 0.200000 1.465859 -0.098079
v 0.200000 1.433030 -0.092388
v 0.200000 1.402775 -0.083147
v 0.200000 1.376256 -0.070711
v 0.200000 1.354493 -0.055557
v 0.200000 1.338321 -0.038268
v 0.200000 1.328363 -0.019509
v 0.200000 1.325000 0.000000
v 0.200000 1.328363 0.019509
v 0.200000 1.338321 0.038268
v 0.200000 1.354493 0.055557
v 0.200000 1.376256 0.070711
v 0.200000 1.402775 0.083147
v 0.200000 1.433030 0.092388
v 0.200000 1.465859 0.098079
v 0.200000 1.500000 0.100000
v 0.200000 1.534141 0.098079
v 0.200000 1.566970 0.092388
v 0.200000 1.597225 0.083147
v 0.200000 1.623744 0.070711
v 0.200000 1.645507 0.055557
v 0.200000 1.661679 0.038268
v 0.200000 1.671637 0.019509
v 0.200000 1.675000 0.000000
v 0.200000 1.671637 -0.019509
v 0.200000 1.661679 -0.038268
v 0.200000 1.645507 -0.055557
v 0.200000 1.623744 -0.070711
v 0.200000 1.597225 -0.083147
v 0.200000 1.566970 -0.092388
v 0.200000 1.534141 -0.098079
v 0.800000 1.500000 0.000000
v 0.800000 1.500000 0.000000
v 0.200000 1.566970 0.092388
v 0.200000 1.597225 0.083147
v 0.200000 1.623744 0.070711
v 0.200000 1.645507 0.055557
v 0.200000 1.661679 0.038268
v 0.200000 1.671637 0.019509
v 0.200000 1.675000 0.000000
v 0.200000 1.671637 -0.019509
v 0.200000 1.661679 -0.038268
v 0.200000 1.645507 -0.055557
v 0.200000 1.623744 -0.070711
v 0.200000 1.597225 -0.083147
vn -0.0000 -0.0562 -0.9984
vn -0.0000 -0.1708 -0.9853
vn -0.0000 -0.2921 -0.9564
vn -0.0000 -0.4246 -0.9054
vn -0.0000 -0.5714 -0.8207
vn -0.0000 -0.7303 -0.6831
vn -0.0000 -0.8833 -0.4689
vn -0.0000 -0.9855 -0.1699
vn -0.0000 -0.9855 0.1699
vn -0.0000 -0.8833 0.4689
vn -0.0000 -0.7303 0.6831
vn -0.0000 -0.5714 0.8207
vn -0.0000 -0.4246 0.9054
vn -0.0000 -0.2921 0.9564
vn -0.0000 -0.1708 0.9853
vn -0.0000 -0.0562 0.9984
vn -0.0000 0.0562 0.9984
vn -0.0000 0.1708 0.9853
vn -0.0000 0.2921 0.9564
vn -0.0000 0.4246 0.9054
vn -0.0000 0.5714 0.8207
vn -0.0000 0.7303 0.6831
vn -0.0000 0.8833 0.4689
vn -0.0000 0.9855 0.1699
vn -0.0000 0.9855 -0.1699
vn -0.0000 0.8833 -0.4689
vn -0.0000 0.7303 -0.6831
vn -0.0000 0.5714 -0.8207
vn -0.0000 0.4246 -0.9054
vn -0.0000 0.2921 -0.9564
vn 1.0000 -0.0000 -0.0000
vn -0.0000 0.1708 -0.9853
vn -0.0000 0.0562 -0.9984
vn -1.0000 -0.0000 -0.0000
vn 0.1641 -0.0554 -0.9849
vn 0.1683 -0.1684 -0.9712
vn 0.1770 -0.2875 -0.9413
vn 0.1907 -0.4168 -0.8888
vn 0.2098 -0.5587 -0.8024
vn 0.2337 -0.7101 -0.6642
vn 0.2588 -0.8532 -0.4529
vn 0.2762 -0.9471 -0.1632
vn 0.2762 -0.9471 0.1632
vn 0.2588 -0.8532 0.4529
vn 0.2337 -0.7101 0.6642
vn 0.2098 -0.5587 0.8024
vn 0.1907 -0.4168 0.8888
vn 0.1770 -0.2875 0.9413
vn 0.1683 -0.1684 0.9712
vn 0.1641 -0.0554 0.9849
vn 0.1641 0.0554 0.9849
vn 0.1683 0.1684 0.9712
vn 0.1770 0.2875 0.9413
vn 0.1907 0.4168 0.8888
vn 0.2098 0.5587 0.8024
vn 0.2337 0.7101 0.6642
vn 0.2588 0.8532 0.4529
vn 0.2762 0.9471 0.1632
vn 0.2762 0.9471 -0.1632
vn 0.2588 0.8532 -0.4529
vn 0.2337 0.7101 -0.6642
vn 0.2098 0.5587 -0.8024
vn 0.1907 0.4168 -0.8888
vn 0.1770 0.2875 -0.9413
vn 0.1683 0.1684 -0.9712
vn 0.1641 0.0554 -0.9849
vt 1.000000 1.000000
vt 0.968750 0.500000
vt 1.000000 0.500000
vt 0.968750 1.000000
vt 0.937500 0.500000
vt 0.937500 1.000000
vt 0.906250 0.500000
vt 0.906250 1.000000
vt 0.875000 0.500000
vt 0.875000 1.000000
vt 0.843750 0.500000
vt 0.843750 1.000000
vt 0.812500 0.500000
vt 0.812500 1.000000
vt 0.781250 0.500000
vt 0.781250 1.000000
vt 0.750000 0.500000
vt 0.750000 1.000000
vt 0.718750 0.500000
vt 0.718750 1.000000
vt 0.687500 0.500000
vt 0.687500 1.000000
vt 0.656250 0.500000
vt 0.656250 1.000000
vt 0.625000 0.500000
vt 0.625000 1.000000
vt 0.593750 0.500000
vt 0.593750 1.000000
vt 0.562500 0.500000
vt 0.562500 1.000000
vt 0.531250 0.500000
vt 0.531250 1.000000
vt 0.500000 0.500000
vt 0.500000 1.000000
vt 0.468750 0.500000
vt 0.468750 1.000000
vt 0.437500 0.500000
vt 0.437500 1.000000
vt 0.406250 0.500000
vt 0.406250 1.000000
vt 0.375000 0.500000
vt 0.375000 1.000000
vt 0.343750 0.500000
vt 0.343750 1.000000
vt 0.312500 0.500000
vt 0.312500 1.000000
vt 0.281250 0.500000
vt 0.281250 1.000000
vt 0.250000 0.500000
vt 0.250000 1.000000
vt 0.218750 0.500000
vt 0.218750 1.000000
vt 0.187500 0.500000
vt 0.187500 1.000000
vt 0.156250 0.500000
vt 0.156250 1.000000
vt 0.125000 0.500000
vt 0.125000 1.000000
vt 0.093750 0.500000
vt 0.093750 1.000000
vt 0.062500 0.500000
vt 0.158156 0.028269
vt 0.471731 0.158156
vt 0.341844 0.471731
vt 0.062500 1.000000
vt 0.031250 0.500000
vt 0.031250 1.000000
vt 0.000000 0.500000
vt 0.796822 0.014612
vt 0.514612 0.203178
vt 0.703178 0.485388
vt 0.250000 0.490000
vt 0.250000 0.250000
vt 0.296822 0.485388
vt 0.383337 0.449553
vt 0.419706 0.419706
vt 0.449553 0.383337
vt 0.471731 0.341844
vt 0.485388 0.296822
vt 0.490000 0.250000
vt 0.485388 0.203178
vt 0.449553 0.116663
vt 0.419706 0.080294
vt 0.383337 0.050447
vt 0.341844 0.028269
vt 0.296822 0.014612
vt 0.250000 0.010000
vt 0.203178 0.014612
vt 0.116663 0.050447
vt 0.080294 0.080294
vt 0.050447 0.116663
vt 0.028269 0.158156
vt 0.014612 0.203178
vt 0.010000 0.250000
vt 0.014612 0.296822
vt 0.028269 0.341844
vt 0.050447 0.383337
vt 0.080294 0.419706
vt 0.116663 0.449553
vt 0.158156 0.471731
vt 0.203178 0.485388
vt 0.000000 1.000000
vt 0.750000 0.490000
vt 0.796822 0.485388
vt 0.841844 0.471731
vt 0.883337 0.449553
vt 0.919706 0.419706
vt 0.949553 0.383337
vt 0.971731 0.341844
vt 0.985388 0.296822
vt 0.990000 0.250000
vt 0.985388 0.203178
vt 0.971731 0.158156
vt 0.949553 0.116663
vt 0.919706 0.080294
vt 0.883337 0.050447
vt 0.841844 0.028269
vt 0.750000 0.010000
vt 0.703178 0.014612
vt 0.658156 0.028269
vt 0.616663 0.050447
vt 0.580294 0.080294
vt 0.550447 0.116663
vt 0.528269 0.158156
vt 0.510000 0.250000
vt 0.514612 0.296822
vt 0.528269 0.341844
vt 0.550447 0.383337
vt 0.580294 0.419706
vt 0.616663 0.449553
vt 0.658156 0.471731
s 0
f 2/1/1 3/2/1 1/3/1
f 4/4/2 5/5/2 3/2/2
f 6/6/3 7/7/3 5/5/3
f 8/8/4 9/9/4 7/7/4
f 10/10/5 11/11/5 9/9/5
f 12/12/6 13/13/6 11/11/6
f 14/14/7 15/15/7 13/13/7
f 16/16/8 17/17/8 15/15/8
f 18/18/9 19/19/9 17/17/9
f 20/20/10 21/21/10 19/19/10
f 22/22/11 23/23/11 21/21/11
f 24/24/12 25/25/12 23/23/12
f 26/26/13 27/27/13 25/25/13
f 28/28/14 29/29/14 27/27/14
f 30/30/15 31/31/15 29/29/15
f 32/32/16 33/33/16 31/31/16
f 34/34/17 35/35/17 33/33/17
f 36/36/18 37/37/18 35/35/18
f 38/38/19 39/39/19 37/37/19
f 40/40/20 41/41/20 39/39/20
f 42/42/21 43/43/21 41/41/21
f 44/44/22 45/45/22 43/43/22
f 46/46/23 47/47/23 45/45/23
f 48/48/24 49/49/24 47/47/24
f 50/50/25 51/51/25 49/49/25
f 52/52/26 53/53/26 51/51/26
f 54/54/27 55/55/27 53/53/27
f 56/56/28 57/57/28 55/55/28
f 58/58/29 59/59/29 57/57/29
f 60/60/30 61/61/30 59/59/30
f 38/62/31 22/63/31 6/64/31
f 62/65/32 63/66/32 61/61/32
f 64/67/33 1/68/33 63/66/33
f 31/69/34 47/70/34 63/71/34
f 65/72/35 98/73/35 66/74/35
f 66/74/36 98/73/36 67/64/36
f 67/64/37 98/73/37 68/75/37
f 68/75/38 98/73/38 69/76/38
f 69/76/39 98/73/39 70/77/39
f 70/77/40 98/73/40 71/78/40
f 71/78/41 98/73/41 72/79/41
f 72/79/42 98/73/42 73/80/42
f 73/80/43 98/73/43 74/81/43
f 74/81/44 98/73/44 75/63/44
f 75/63/45 98/73/45 76/82/45
f 76/82/46 98/73/46 77/83/46
f 77/83/47 98/73/47 78/84/47
f 78/84/48 98/73/48 79/85/48
f 79/85/49 98/73/49 80/86/49
f 80/86/50 98/73/50 81/87/50
f 81/87/51 98/73/51 82/88/51
f 82/88/52 98/73/52 99/62/52
f 83/62/53 97/73/53 84/89/53
f 84/89/54 97/73/54 85/90/54
f 85/90/55 97/73/55 86/91/55
f 86/91/56 97/73/56 87/92/56
f 87/92/57 97/73/57 88/93/57
f 88/93/58 97/73/58 89/94/58
f 89/94/59 97/73/59 90/95/59
f 90/95/60 97/73/60 91/96/60
f 91/96/61 97/73/61 92/97/61
f 92/97/62 97/73/62 93/98/62
f 93/98/63 97/73/63 94/99/63
f 110/99/64 98/73/64 95/100/64
f 80/69/34 104/70/34 96/71/34
f 95/100/65 98/73/65 96/101/65
f 96/101/66 98/73/66 65/72/66
f 97/73/31 99/62/31 98/73/31
f 83/62/31 100/89/31 99/62/31
f 84/89/31 101/90/31 100/89/31
f 85/90/31 102/91/31 101/90/31
f 86/91/31 103/92/31 102/91/31
f 87/92/31 104/93/31 103/92/31
f 88/93/31 105/94/31 104/93/31
f 89/94/31 106/95/31 105/94/31
f 90/95/31 107/96/31 106/95/31
f 91/96/31 108/97/31 107/96/31
f 92/97/31 109/98/31 108/97/31
f 93/98/31 110/99/31 109/98/31
f 94/99/31 98/73/31 110/99/31
f 2/1/1 4/4/1 3/2/1
f 4/4/2 6/6/2 5/5/2
f 6/6/3 8/8/3 7/7/3
f 8/8/4 10/10/4 9/9/4
f 10/10/5 12/12/5 11/11/5
f 12/12/6 14/14/6 13/13/6
f 14/14/7 16/16/7 15/15/7
f 16/16/8 18/18/8 17/17/8
f 18/18/9 20/20/9 19/19/9
f 20/20/10 22/22/10 21/21/10
f 22/22/11 24/24/11 23/23/11
f 24/24/12 26/26/12 25/25/12
f 26/26/13 28/28/13 27/27/13
f 28/28/14 30/30/14 29/29/14
f 30/30/15 32/32/15 31/31/15
f 32/32/16 34/34/16 33/33/16
f 34/34/17 36/36/17 35/35/17
f 36/36/18 38/38/18 37/37/18
f 38/38/19 40/40/19 39/39/19
f 40/40/20 42/42/20 41/41/20
f 42/42/21 44/44/21 43/43/21
f 44/44/22 46/46/22 45/45/22
f 46/46/23 48/48/23 47/47/23
f 48/48/24 50/50/24 49/49/24
f 50/50/25 52/52/25 51/51/25
f 52/52/26 54/54/26 53/53/26
f 54/54/27 56/56/27 55/55/27
f 56/56/28 58/58/28 57/57/28
f 58/58/29 60/60/29 59/59/29
f 60/60/30 62/65/30 61/61/30
f 6/64/31 4/74/31 2/72/31
f 2/72/31 64/101/31 62/100/31
f 62/100/31 60/99/31 58/98/31
f 58/98/31 56/97/31 54/96/31
f 54/96/31 52/95/31 50/94/31
f 50/94/31 48/93/31 46/92/31
f 46/92/31 44/91/31 42/90/31
f 42/90/31 40/89/31 38/62/31
f 38/62/31 36/88/31 34/87/31
f 34/87/31 32/86/31 30/85/31
f 30/85/31 28/84/31 26/83/31
f 26/83/31 24/82/31 22/63/31
f 22/63/31 20/81/31 18/80/31
f 18/80/31 16/79/31 14/78/31
f 14/78/31 12/77/31 10/76/31
f 10/76/31 8/75/31 6/64/31
f 6/64/31 2/72/31 62/100/31
f 62/100/31 58/98/31 54/96/31
f 54/96/31 50/94/31 46/92/31
f 46/92/31 42/90/31 38/62/31
f 38/62/31 34/87/31 30/85/31
f 30/85/31 26/83/31 22/63/31
f 22/63/31 18/80/31 14/78/31
f 14/78/31 10/76/31 6/64/31
f 6/64/31 62/100/31 54/96/31
f 54/96/31 46/92/31 38/62/31
f 38/62/31 30/85/31 22/63/31
f 22/63/31 14/78/31 6/64/31
f 6/64/31 54/96/31 38/62/31
f 62/65/32 64/67/32 63/66/32
f 64/67/33 2/102/33 1/68/33
f 63/71/34 1/103/34 3/104/34
f 3/104/34 5/105/34 7/106/34
f 7/106/34 9/107/34 11/108/34
f 11/108/34 13/109/34 15/110/34
f 15/110/34 17/111/34 19/112/34
f 19/112/34 21/113/34 23/114/34
f 23/114/34 25/115/34 27/116/34
f 27/116/34 29/117/34 31/69/34
f 31/69/34 33/118/34 35/119/34
f 35/119/34 37/120/34 39/121/34
f 39/121/34 41/122/34 43/123/34
f 43/123/34 45/124/34 47/70/34
f 47/70/34 49/125/34 51/126/34
f 51/126/34 53/127/34 55/128/34
f 55/128/34 57/129/34 59/130/34
f 59/130/34 61/131/34 63/71/34
f 63/71/34 3/104/34 7/106/34
f 7/106/34 11/108/34 15/110/34
f 15/110/34 19/112/34 23/114/34
f 23/114/34 27/116/34 31/69/34
f 31/69/34 35/119/34 39/121/34
f 39/121/34 43/123/34 47/70/34
f 47/70/34 51/126/34 55/128/34
f 55/128/34 59/130/34 63/71/34
f 63/71/34 7/106/34 15/110/34
f 15/110/34 23/114/34 31/69/34
f 31/69/34 39/121/34 47/70/34
f 47/70/34 55/128/34 63/71/34
f 63/71/34 15/110/34 31/69/34
f 96/71/34 65/103/34 66/104/34
f 66/104/34 67/105/34 68/106/34
f 68/106/34 69/107/34 70/108/34
f 70/108/34 71/109/34 72/110/34
f 72/110/34 73/111/34 74/112/34
f 74/112/34 75/113/34 76/114/34
f 76/114/34 77/115/34 78/116/34
f 78/116/34 79/117/34 80/69/34
f 80/69/34 81/118/34 82/119/34
f 82/119/34 99/120/34 100/121/34
f 100/121/34 101/122/34 102/123/34
f 102/123/34 103/124/34 104/70/34
f 104/70/34 105/125/34 106/126/34
f 106/126/34 107/127/34 108/128/34
f 108/128/34 109/129/34 110/130/34
f 110/130/34 95/131/34 96/71/34
f 96/71/34 66/104/34 68/106/34
f 68/106/34 70/108/34 72/110/34
f 72/110/34 74/112/34 76/114/34
f 76/114/34 78/116/34 80/69/34
f 80/69/34 82/119/34 100/121/34
f 100/121/34 102/123/34 104/70/34
f 104/70/34 106/126/34 108/128/34
f 108/128/34 110/130/34 96/71/34
f 96/71/34 68/106/34 72/110/34
f 72/110/34 76/114/34 80/69/34
f 80/69/34 100/121/34 104/70/34
f 104/70/34 108/128/34 96/71/34
f 96/71/34 72/110/34 80/69/34
f 97/73/31 83/62/31 99/62/31
f 83/62/31 84/89/31 100/89/31
f 84/89/31 85/90/31 101/90/31
f 85/90/31 86/91/31 102/91/31
f 86/91/31 87/92/31 103/92/31
f 87/92/31 88/93/31 104/93/31
f 88/93/31 89/94/31 105/94/31
f 89/94/31 90/95/31 106/95/31
f 90/95/31 91/96/31 107/96/31
f 91/96/31 92/97/31 108/97/31
f 92/97/31 93/98/31 109/98/31
f 93/98/31 94/99/31 110/99/31
f 94/99/31 97/73/31 98/73/31
